M48
;Layer_Color=9474304
;FILE_FORMAT=2:5
INCH,LZ
;TYPE=PLATED
T01F00S00C0.01201
T02F00S00C0.04331
%
T01
X0020472Y0082933
X0028386Y0084035
X0049961Y0067244
X0057874Y0068347
X0084764Y0058976
X0104331Y0066654
X0127733Y006685
X0129685Y0051653
Y002311
X012189Y0027402
X0146197Y0037781
X0151603Y0037756
X0155157Y0037717
X0152795Y0068504
X0152992Y0075118
X0145158Y008374
X0125709Y0086654
X0129724Y0099134
X0121968Y0102992
X0109648Y0093619
X0101732Y0096929
X0072874Y0103032
X0129842Y012752
X0145591Y011315
X0151378Y0112716
X0155197Y0112913
X0162936Y0109748
X0165984Y0107244
X0169252Y0109449
X0169173Y0116538
X0165984Y0118228
X0162761Y0116426
X0177362Y0112909
X0180472Y0115433
X0183583Y0124173
X0187205Y0120984
X0186768Y010453
X0183661Y0102795
X0204618Y0099038
X0213376Y0094558
X0217835Y0094646
X0230028Y0119151
X0204961Y0126339
X0199555Y0113409
X020437Y0050787
X0199016Y0037626
X0187276Y0045526
X0183504Y0048087
X0180591Y0039882
X0177638Y0037598
X0169213Y0040512
X0166417Y004275
X0163583Y0040591
X0163628Y0034618
X0169168Y0034612
X016639Y0031785
X0183307Y0027283
X0186514Y0029224
X0204696Y0023543
X021333Y0018652
X0217362Y0018898
X0229173Y004374
X026063Y0026299
X029048Y0028457
X0295276Y0028504
X0299291Y0030236
X0299897Y0034306
X0300143Y0040047
X0297244Y0043071
X029685Y0049055
X0294094Y003937
X029126Y0023779
X029878Y0020276
X0298701Y0011654
X0311968Y0026142
X0312008Y0047362
X0271083Y0056043
X0260669Y0102008
X0289843Y0104095
X0294291Y0104331
X0298805Y0105327
X0299488Y0109685
X0299606Y0114842
X029622Y0117283
X0293268Y0113661
X0297677Y0124843
X0311929Y0123779
X0311417Y0102008
X0298346Y0096299
X0298425Y0087717
X0290394Y0099843
X0270394Y0131693
X0344331Y0125157
X034437Y0100787
X0361811Y0100984
X0361693Y010752
X0377953Y0108228
X0378031Y0103937
X0382323Y0098543
X0377559Y0092598
X0398543Y0096496
X0401063Y0101772
X0397402Y0104016
X0405039Y0092716
X0416181Y0096102
X0422402Y0095906
X0428661Y0105866
X0428563Y0109665
X043689Y0125433
X0449449Y0122323
X0449409Y0117913
X0447559Y009874
X0455236Y0097126
X0453201Y0041155
X0449449Y0041221
X0436929Y0048661
X0428366Y0033327
X0428398Y0029344
X0415512Y0017441
X0409016Y0017362
X0398386Y0020512
X0401575Y0026024
X0397756Y0028622
X037831Y0028195
X0378071Y0032362
X0382716Y0022638
X0361929Y0024252
X036185Y0031063
X0344409Y0024636
X0344449Y004937
X0373307Y005126
X038874Y0049685
X0394055Y0049764
X0394055Y005378
X0405Y0047099
X0447314Y0023156
X0455056Y0021831
X0452992Y0015871
X0318071Y0014724
X0318209Y0090886
X0372992Y0127008
X0388543Y0125354
X0393858Y0125787
X0393976Y0129646
X0404764Y0122984
X0470236Y010252
X0482992Y0082028
X0483071Y0074626
X0483189Y0067185
X0469921Y0025472
X0485945Y0011225
T02
X001Y01
Y011
Y012
Y013
X0365Y001
X0375
X0385
X0395
X0495Y01
Y011
Y012
Y013
M30
