G04*
G04 #@! TF.GenerationSoftware,Altium Limited,Altium Designer,25.3.3 (18)*
G04*
G04 Layer_Physical_Order=4*
G04 Layer_Color=16711680*
%FSLAX25Y25*%
%MOIN*%
G70*
G04*
G04 #@! TF.SameCoordinates,666F3FC4-157B-4D1F-873D-C3E9C75C07DF*
G04*
G04*
G04 #@! TF.FilePolarity,Positive*
G04*
G01*
G75*
%ADD31C,0.01000*%
%ADD42C,0.01500*%
%ADD44C,0.06299*%
G04:AMPARAMS|DCode=45|XSize=62.99mil|YSize=62.99mil|CornerRadius=15.75mil|HoleSize=0mil|Usage=FLASHONLY|Rotation=180.000|XOffset=0mil|YOffset=0mil|HoleType=Round|Shape=RoundedRectangle|*
%AMROUNDEDRECTD45*
21,1,0.06299,0.03150,0,0,180.0*
21,1,0.03150,0.06299,0,0,180.0*
1,1,0.03150,-0.01575,0.01575*
1,1,0.03150,0.01575,0.01575*
1,1,0.03150,0.01575,-0.01575*
1,1,0.03150,-0.01575,-0.01575*
%
%ADD45ROUNDEDRECTD45*%
G04:AMPARAMS|DCode=46|XSize=62.99mil|YSize=62.99mil|CornerRadius=15.75mil|HoleSize=0mil|Usage=FLASHONLY|Rotation=90.000|XOffset=0mil|YOffset=0mil|HoleType=Round|Shape=RoundedRectangle|*
%AMROUNDEDRECTD46*
21,1,0.06299,0.03150,0,0,90.0*
21,1,0.03150,0.06299,0,0,90.0*
1,1,0.03150,0.01575,0.01575*
1,1,0.03150,0.01575,-0.01575*
1,1,0.03150,-0.01575,-0.01575*
1,1,0.03150,-0.01575,0.01575*
%
%ADD46ROUNDEDRECTD46*%
%ADD47C,0.02402*%
D31*
X238575Y20398D02*
G03*
X240075Y18898I1500J0D01*
G01*
X238575Y24583D02*
G03*
X235575Y24583I-1500J0D01*
G01*
X232575Y14874D02*
G03*
X235575Y14874I1500J0D01*
G01*
X232575Y24583D02*
G03*
X229575Y24583I-1500J0D01*
G01*
X226575Y14874D02*
G03*
X229575Y14874I1500J0D01*
G01*
X226575Y24583D02*
G03*
X223575Y24583I-1500J0D01*
G01*
X222075Y18898D02*
G03*
X223575Y20398I0J1500D01*
G01*
X162892Y45451D02*
X174728D01*
X174793Y45386D01*
X150472Y50787D02*
X204370D01*
X187136Y45386D02*
X187276Y45526D01*
X155157Y37717D02*
X162892Y45451D01*
X174793Y45386D02*
X187136D01*
X141663Y41978D02*
X150472Y50787D01*
X192141Y86944D02*
X192524D01*
X204235Y98655D01*
Y99038D01*
X180315Y75118D02*
X192141Y86944D01*
X151257Y99038D02*
X204618D01*
X150764Y23543D02*
X204696D01*
X141663Y32644D02*
X150764Y23543D01*
X493480Y117046D02*
X495000Y118566D01*
X449449Y41221D02*
Y72913D01*
X495000Y118566D02*
Y120000D01*
X449449Y72913D02*
X493480Y116945D01*
Y117046D01*
X323228Y76417D02*
X323589Y76056D01*
X217835Y94646D02*
X236063Y76417D01*
X323228D01*
X323589Y76056D02*
X380465Y18932D01*
X411260Y86496D02*
X419095D01*
X141941Y108354D02*
X151257Y99038D01*
X155197Y113150D02*
X162980Y120933D01*
X187154D01*
X240075Y18898D02*
X254095D01*
X238575Y20398D02*
Y24583D01*
X235575Y14874D02*
Y24583D01*
X232575Y14874D02*
Y24583D01*
X229575Y14874D02*
Y24583D01*
X226575Y14874D02*
Y24583D01*
X223575Y20398D02*
Y24583D01*
X221575Y18898D02*
X222075D01*
X254095D02*
X256535D01*
X217362D02*
X221575D01*
X204581Y126339D02*
X204961D01*
X141941Y118181D02*
X150847Y127087D01*
X203833D02*
X204581Y126339D01*
X150847Y127087D02*
X203833D01*
X180315Y75118D02*
X204370Y51063D01*
Y50787D02*
Y51063D01*
X141941Y108354D02*
Y118181D01*
X129724Y99134D02*
X129783Y99193D01*
Y127461D01*
X129842Y127520D01*
X187154Y120933D02*
X187205Y120984D01*
X155197Y112913D02*
Y113150D01*
X141663Y32644D02*
Y41978D01*
X152992Y75118D02*
X180315D01*
X129685Y23110D02*
Y51653D01*
X370118Y5118D02*
X375000Y10000D01*
X270315Y5118D02*
X370118D01*
X256535Y18898D02*
X270315Y5118D01*
X395000Y10000D02*
X418032D01*
X385000D02*
Y14646D01*
X419095Y86496D02*
X433504Y72087D01*
X418032Y10000D02*
X433504Y25473D01*
Y72087D01*
X407028Y33327D02*
X428366D01*
X407106Y109665D02*
X428563D01*
X401063Y101772D02*
X401338Y102046D01*
Y103897D01*
X407106Y109665D01*
X344370Y100787D02*
X358661Y86496D01*
X401849Y28149D02*
X407028Y33327D01*
X401575Y26024D02*
X401849Y26298D01*
Y28149D01*
X380906Y106811D02*
Y112835D01*
X393858Y125787D01*
X378031Y103937D02*
X380906Y106811D01*
X358661Y86496D02*
X383898D01*
X380984Y30869D02*
Y36693D01*
X394055Y49764D01*
X378310Y28195D02*
X380984Y30869D01*
X383898Y86496D02*
X411260D01*
X377795Y92598D02*
X383898Y86496D01*
X377559Y92598D02*
X377795D01*
X405039Y92716D02*
X411260Y86496D01*
X325089Y24636D02*
X344409D01*
X300669Y49055D02*
X325089Y24636D01*
X296850Y49055D02*
X300669D01*
X297677Y124843D02*
X336024Y86496D01*
X358661D01*
X384639Y15007D02*
X385000Y14646D01*
X380524Y18875D02*
X384639Y15007D01*
D42*
X169213Y40357D02*
Y40512D01*
X171577Y34612D02*
X174181Y32008D01*
X169168Y34612D02*
X171577D01*
X163628Y34773D02*
X169213Y40357D01*
Y40512D02*
X175217Y34508D01*
X174181Y32008D02*
X185124D01*
X185292Y32175D02*
X187736D01*
X188939Y34508D02*
X294365D01*
X184089D02*
X184256Y34675D01*
X187903Y32008D02*
X295401D01*
X175217Y34508D02*
X184089D01*
X188772Y34675D02*
X188939Y34508D01*
X187736Y32175D02*
X187903Y32008D01*
X185124D02*
X185292Y32175D01*
X184256Y34675D02*
X188772D01*
X295757Y107459D02*
X297811Y109513D01*
X299315D02*
X299487Y109685D01*
X297811Y109513D02*
X299315D01*
X294722Y109959D02*
X299605Y114842D01*
X188012Y107459D02*
X295757D01*
X189048Y109959D02*
X294722D01*
X299605Y114842D02*
X299606D01*
X187990Y107480D02*
X188012Y107459D01*
X175509Y109959D02*
X184489D01*
X172297Y109635D02*
X174473Y107459D01*
X189026Y109980D02*
X189048Y109959D01*
X169239Y116228D02*
X175509Y109959D01*
X174473Y107459D02*
X185524D01*
X184489Y109959D02*
X184510Y109980D01*
X189026D01*
X185546Y107480D02*
X187990D01*
X185524Y107459D02*
X185546Y107480D01*
X169173Y116294D02*
X169239Y116228D01*
X295401Y32008D02*
X297699Y34306D01*
X294365Y34508D02*
X299904Y40047D01*
X300143D01*
X297699Y34306D02*
X299897D01*
X170075Y109635D02*
X172297D01*
X169173Y116294D02*
Y116538D01*
X170062Y109621D02*
X170075Y109635D01*
X169252Y109449D02*
X169424Y109621D01*
X170062D01*
X162936Y109926D02*
X168969Y115958D01*
X162936Y109748D02*
Y109926D01*
X163628Y34618D02*
Y34773D01*
D44*
X365000Y10000D02*
D03*
X375000D02*
D03*
X385000D02*
D03*
X495000Y110000D02*
D03*
Y120000D02*
D03*
Y130000D02*
D03*
X10000Y110000D02*
D03*
Y120000D02*
D03*
Y130000D02*
D03*
D45*
X395000Y10000D02*
D03*
D46*
X495000Y100000D02*
D03*
X10000D02*
D03*
D47*
X165984Y118228D02*
D03*
X183504Y48087D02*
D03*
X166417Y42750D02*
D03*
X187276Y45526D02*
D03*
X169213Y40512D02*
D03*
X163583Y40591D02*
D03*
X183307Y27283D02*
D03*
X447314Y23156D02*
D03*
X455056Y21831D02*
D03*
X298805Y105327D02*
D03*
X299488Y109685D02*
D03*
X294291Y104331D02*
D03*
X177362Y112909D02*
D03*
X199555Y113409D02*
D03*
X295276Y28504D02*
D03*
X199016Y37626D02*
D03*
X186514Y29224D02*
D03*
X299291Y30236D02*
D03*
X290480Y28457D02*
D03*
X294094Y39370D02*
D03*
X177638Y37598D02*
D03*
X180591Y39882D02*
D03*
X186768Y104530D02*
D03*
X180472Y115433D02*
D03*
X289843Y104095D02*
D03*
X183661Y102795D02*
D03*
X162936Y109748D02*
D03*
X169252Y109449D02*
D03*
X204370Y50787D02*
D03*
X145591Y113150D02*
D03*
X183583Y124173D02*
D03*
X151378Y112716D02*
D03*
X187205Y120984D02*
D03*
X155197Y112913D02*
D03*
X146197Y37781D02*
D03*
X151603Y37756D02*
D03*
X155157Y37717D02*
D03*
X127733Y66850D02*
D03*
X404764Y122984D02*
D03*
X405000Y47099D02*
D03*
X393976Y129646D02*
D03*
X401063Y101772D02*
D03*
X405039Y92716D02*
D03*
X398543Y96496D02*
D03*
X428661Y105866D02*
D03*
X436890Y125433D02*
D03*
X449449Y122323D02*
D03*
X449409Y117913D02*
D03*
X447559Y98740D02*
D03*
X470236Y102520D02*
D03*
X455236Y97126D02*
D03*
X428563Y109665D02*
D03*
X422402Y95906D02*
D03*
X416181Y96102D02*
D03*
X388543Y125354D02*
D03*
X344370Y100787D02*
D03*
X372992Y127008D02*
D03*
X361693Y107520D02*
D03*
X344331Y125157D02*
D03*
X393858Y125787D02*
D03*
X270394Y131693D02*
D03*
X318209Y90886D02*
D03*
X298346Y96299D02*
D03*
X311417Y102008D02*
D03*
X299606Y114842D02*
D03*
X296220Y117283D02*
D03*
X298425Y87717D02*
D03*
X293268Y113661D02*
D03*
X290394Y99843D02*
D03*
X397402Y104016D02*
D03*
X378031Y103937D02*
D03*
X361811Y100984D02*
D03*
X382323Y98543D02*
D03*
X377953Y108228D02*
D03*
X377559Y92598D02*
D03*
X311929Y123779D02*
D03*
X297677Y124843D02*
D03*
X260669Y102008D02*
D03*
X230028Y119151D02*
D03*
X217835Y94646D02*
D03*
X296850Y49055D02*
D03*
X398386Y20512D02*
D03*
X378310Y28195D02*
D03*
X397756Y28622D02*
D03*
X378071Y32362D02*
D03*
X382716Y22638D02*
D03*
X401575Y26024D02*
D03*
X344409Y24636D02*
D03*
X57874Y68347D02*
D03*
X49961Y67244D02*
D03*
X20472Y82933D02*
D03*
X469921Y25472D02*
D03*
X452992Y15871D02*
D03*
X485945Y11225D02*
D03*
X482992Y82028D02*
D03*
X28386Y84035D02*
D03*
X297244Y43071D02*
D03*
X109648Y93619D02*
D03*
X121890Y27402D02*
D03*
X121968Y102992D02*
D03*
X229173Y43740D02*
D03*
X453201Y41155D02*
D03*
X428398Y29344D02*
D03*
X394055Y53780D02*
D03*
X291260Y23779D02*
D03*
X166390Y31785D02*
D03*
X213330Y18652D02*
D03*
X213376Y94558D02*
D03*
X165984Y107244D02*
D03*
X169168Y34612D02*
D03*
X204961Y126339D02*
D03*
X129724Y99134D02*
D03*
X129842Y127520D02*
D03*
X129685Y51653D02*
D03*
Y23110D02*
D03*
X125709Y86654D02*
D03*
X145158Y83740D02*
D03*
X152992Y75118D02*
D03*
X152795Y68504D02*
D03*
X299897Y34306D02*
D03*
X300143Y40047D02*
D03*
X312008Y47362D02*
D03*
X311968Y26142D02*
D03*
X101732Y96929D02*
D03*
X217362Y18898D02*
D03*
X318071Y14724D02*
D03*
X298701Y11654D02*
D03*
X361929Y24252D02*
D03*
X344449Y49370D02*
D03*
X361850Y31063D02*
D03*
X415512Y17441D02*
D03*
X428366Y33327D02*
D03*
X409016Y17362D02*
D03*
X483189Y67185D02*
D03*
X483071Y74626D02*
D03*
X394055Y49764D02*
D03*
X449449Y41221D02*
D03*
X298780Y20276D02*
D03*
X260630Y26299D02*
D03*
X204618Y99038D02*
D03*
X204696Y23543D02*
D03*
X436929Y48661D02*
D03*
X373307Y51260D02*
D03*
X388740Y49685D02*
D03*
X163628Y34618D02*
D03*
X169173Y116538D02*
D03*
X162761Y116426D02*
D03*
X271083Y56043D02*
D03*
X84764Y58976D02*
D03*
X72874Y103032D02*
D03*
X104331Y66654D02*
D03*
M02*
