G04*
G04 #@! TF.GenerationSoftware,Altium Limited,Altium Designer,25.3.3 (18)*
G04*
G04 Layer_Color=2752767*
%FSLAX25Y25*%
%MOIN*%
G70*
G04*
G04 #@! TF.SameCoordinates,666F3FC4-157B-4D1F-873D-C3E9C75C07DF*
G04*
G04*
G04 #@! TF.FilePolarity,Positive*
G04*
G01*
G75*
%ADD48C,0.00200*%
D48*
X364200Y9200D02*
Y10800D01*
X365800D01*
Y9200D01*
X364200D01*
X374200D02*
Y10800D01*
X375800D01*
Y9200D01*
X374200D01*
X394200D02*
Y10800D01*
X395800D01*
Y9200D01*
X394200D01*
X384200D02*
Y10800D01*
X385800D01*
Y9200D01*
X384200D01*
X494200Y109200D02*
Y110800D01*
X495800D01*
Y109200D01*
X494200D01*
Y99200D02*
Y100800D01*
X495800D01*
Y99200D01*
X494200D01*
Y119200D02*
Y120800D01*
X495800D01*
Y119200D01*
X494200D01*
Y129200D02*
Y130800D01*
X495800D01*
Y129200D01*
X494200D01*
X9200Y109200D02*
Y110800D01*
X10800D01*
Y109200D01*
X9200D01*
Y99200D02*
Y100800D01*
X10800D01*
Y99200D01*
X9200D01*
Y119200D02*
Y120800D01*
X10800D01*
Y119200D01*
X9200D01*
Y129200D02*
Y130800D01*
X10800D01*
Y129200D01*
X9200D01*
X165984Y117428D02*
X165184Y119028D01*
X166784D01*
X165984Y117428D01*
X183504Y47287D02*
X182704Y48887D01*
X184304D01*
X183504Y47287D01*
X166417Y41950D02*
X165617Y43550D01*
X167217D01*
X166417Y41950D01*
X187276Y44726D02*
X186476Y46326D01*
X188076D01*
X187276Y44726D01*
X169213Y39712D02*
X168413Y41312D01*
X170013D01*
X169213Y39712D01*
X163583Y39791D02*
X162783Y41391D01*
X164383D01*
X163583Y39791D01*
X183307Y26484D02*
X182507Y28084D01*
X184107D01*
X183307Y26484D01*
X447314Y22356D02*
X446514Y23956D01*
X448114D01*
X447314Y22356D01*
X455056Y21031D02*
X454256Y22631D01*
X455857D01*
X455056Y21031D01*
X298805Y104527D02*
X298005Y106127D01*
X299605D01*
X298805Y104527D01*
X299488Y108885D02*
X298688Y110485D01*
X300288D01*
X299488Y108885D01*
X294291Y103531D02*
X293491Y105131D01*
X295091D01*
X294291Y103531D01*
X177362Y112109D02*
X176562Y113709D01*
X178162D01*
X177362Y112109D01*
X199555Y112610D02*
X198755Y114209D01*
X200355D01*
X199555Y112610D01*
X295276Y27704D02*
X294476Y29304D01*
X296076D01*
X295276Y27704D01*
X199016Y36826D02*
X198216Y38426D01*
X199816D01*
X199016Y36826D01*
X186514Y28424D02*
X185714Y30024D01*
X187314D01*
X186514Y28424D01*
X299291Y29436D02*
X298491Y31036D01*
X300091D01*
X299291Y29436D01*
X290480Y27657D02*
X289680Y29257D01*
X291280D01*
X290480Y27657D01*
X294094Y38570D02*
X293295Y40170D01*
X294895D01*
X294094Y38570D01*
X177638Y36798D02*
X176838Y38398D01*
X178438D01*
X177638Y36798D01*
X180591Y39082D02*
X179791Y40682D01*
X181391D01*
X180591Y39082D01*
X186768Y103729D02*
X185968Y105330D01*
X187568D01*
X186768Y103729D01*
X180472Y114633D02*
X179672Y116233D01*
X181272D01*
X180472Y114633D01*
X289843Y103295D02*
X289042Y104894D01*
X290642D01*
X289843Y103295D01*
X183661Y101995D02*
X182861Y103595D01*
X184461D01*
X183661Y101995D01*
X162936Y108948D02*
X162136Y110548D01*
X163736D01*
X162936Y108948D01*
X169252Y108649D02*
X168452Y110249D01*
X170052D01*
X169252Y108649D01*
X204370Y49987D02*
X203570Y51587D01*
X205170D01*
X204370Y49987D01*
X145591Y112350D02*
X144791Y113950D01*
X146391D01*
X145591Y112350D01*
X183583Y123373D02*
X182783Y124973D01*
X184383D01*
X183583Y123373D01*
X151378Y111916D02*
X150578Y113516D01*
X152178D01*
X151378Y111916D01*
X187205Y120184D02*
X186405Y121784D01*
X188005D01*
X187205Y120184D01*
X155197Y112113D02*
X154397Y113713D01*
X155997D01*
X155197Y112113D01*
X146197Y36981D02*
X145397Y38581D01*
X146997D01*
X146197Y36981D01*
X151603Y36956D02*
X150803Y38556D01*
X152403D01*
X151603Y36956D01*
X155157Y36917D02*
X154358Y38517D01*
X155957D01*
X155157Y36917D01*
X127733Y66050D02*
X126933Y67650D01*
X128533D01*
X127733Y66050D01*
X404764Y122184D02*
X403964Y123784D01*
X405564D01*
X404764Y122184D01*
X405000Y46299D02*
X404200Y47899D01*
X405800D01*
X405000Y46299D01*
X393976Y128846D02*
X393176Y130446D01*
X394776D01*
X393976Y128846D01*
X401063Y100972D02*
X400263Y102572D01*
X401863D01*
X401063Y100972D01*
X405039Y91917D02*
X404239Y93516D01*
X405839D01*
X405039Y91917D01*
X398543Y95696D02*
X397743Y97296D01*
X399343D01*
X398543Y95696D01*
X428661Y105066D02*
X427861Y106666D01*
X429461D01*
X428661Y105066D01*
X436890Y124633D02*
X436090Y126233D01*
X437690D01*
X436890Y124633D01*
X449449Y121523D02*
X448649Y123123D01*
X450249D01*
X449449Y121523D01*
X449409Y117113D02*
X448609Y118713D01*
X450210D01*
X449409Y117113D01*
X447559Y97940D02*
X446759Y99540D01*
X448359D01*
X447559Y97940D01*
X470236Y101720D02*
X469436Y103320D01*
X471036D01*
X470236Y101720D01*
X455236Y96326D02*
X454436Y97926D01*
X456036D01*
X455236Y96326D01*
X428563Y108865D02*
X427763Y110465D01*
X429363D01*
X428563Y108865D01*
X422402Y95105D02*
X421602Y96706D01*
X423202D01*
X422402Y95105D01*
X416181Y95302D02*
X415381Y96902D01*
X416981D01*
X416181Y95302D01*
X388543Y124554D02*
X387743Y126154D01*
X389343D01*
X388543Y124554D01*
X344370Y99987D02*
X343570Y101587D01*
X345170D01*
X344370Y99987D01*
X372992Y126208D02*
X372192Y127808D01*
X373792D01*
X372992Y126208D01*
X361693Y106720D02*
X360893Y108320D01*
X362493D01*
X361693Y106720D01*
X344331Y124357D02*
X343531Y125958D01*
X345131D01*
X344331Y124357D01*
X393858Y124987D02*
X393058Y126587D01*
X394658D01*
X393858Y124987D01*
X270394Y130893D02*
X269594Y132493D01*
X271194D01*
X270394Y130893D01*
X318209Y90086D02*
X317409Y91686D01*
X319009D01*
X318209Y90086D01*
X298346Y95499D02*
X297547Y97099D01*
X299147D01*
X298346Y95499D01*
X311417Y101208D02*
X310617Y102808D01*
X312217D01*
X311417Y101208D01*
X299606Y114042D02*
X298806Y115642D01*
X300406D01*
X299606Y114042D01*
X296220Y116483D02*
X295421Y118084D01*
X297021D01*
X296220Y116483D01*
X298425Y86917D02*
X297625Y88516D01*
X299225D01*
X298425Y86917D01*
X293268Y112861D02*
X292468Y114461D01*
X294068D01*
X293268Y112861D01*
X290394Y99042D02*
X289594Y100643D01*
X291194D01*
X290394Y99042D01*
X397402Y103216D02*
X396602Y104816D01*
X398202D01*
X397402Y103216D01*
X378031Y103137D02*
X377232Y104737D01*
X378832D01*
X378031Y103137D01*
X361811Y100184D02*
X361011Y101784D01*
X362611D01*
X361811Y100184D01*
X382323Y97743D02*
X381523Y99343D01*
X383123D01*
X382323Y97743D01*
X377953Y107428D02*
X377153Y109028D01*
X378753D01*
X377953Y107428D01*
X377559Y91798D02*
X376759Y93398D01*
X378359D01*
X377559Y91798D01*
X311929Y122979D02*
X311129Y124580D01*
X312729D01*
X311929Y122979D01*
X297677Y124042D02*
X296877Y125643D01*
X298477D01*
X297677Y124042D01*
X260669Y101208D02*
X259869Y102808D01*
X261469D01*
X260669Y101208D01*
X230028Y118351D02*
X229228Y119951D01*
X230828D01*
X230028Y118351D01*
X217835Y93846D02*
X217035Y95446D01*
X218635D01*
X217835Y93846D01*
X296850Y48255D02*
X296050Y49855D01*
X297650D01*
X296850Y48255D01*
X398386Y19712D02*
X397586Y21312D01*
X399186D01*
X398386Y19712D01*
X378310Y27395D02*
X377510Y28995D01*
X379110D01*
X378310Y27395D01*
X397756Y27822D02*
X396956Y29422D01*
X398556D01*
X397756Y27822D01*
X378071Y31562D02*
X377271Y33162D01*
X378871D01*
X378071Y31562D01*
X382716Y21838D02*
X381916Y23438D01*
X383517D01*
X382716Y21838D01*
X401575Y25224D02*
X400775Y26824D01*
X402375D01*
X401575Y25224D01*
X344409Y23836D02*
X343609Y25436D01*
X345209D01*
X344409Y23836D01*
X57874Y67546D02*
X57074Y69147D01*
X58674D01*
X57874Y67546D01*
X49961Y66444D02*
X49161Y68044D01*
X50761D01*
X49961Y66444D01*
X20472Y82133D02*
X19672Y83733D01*
X21272D01*
X20472Y82133D01*
X469921Y24672D02*
X469121Y26272D01*
X470721D01*
X469921Y24672D01*
X452992Y15071D02*
X452192Y16671D01*
X453792D01*
X452992Y15071D01*
X485945Y10425D02*
X485145Y12026D01*
X486745D01*
X485945Y10425D01*
X482992Y81227D02*
X482192Y82828D01*
X483792D01*
X482992Y81227D01*
X28386Y83235D02*
X27586Y84835D01*
X29186D01*
X28386Y83235D01*
X297244Y42271D02*
X296444Y43871D01*
X298044D01*
X297244Y42271D01*
X109648Y92819D02*
X108848Y94419D01*
X110448D01*
X109648Y92819D01*
X121890Y26602D02*
X121090Y28202D01*
X122690D01*
X121890Y26602D01*
X121968Y102192D02*
X121168Y103792D01*
X122768D01*
X121968Y102192D01*
X229173Y42940D02*
X228373Y44540D01*
X229973D01*
X229173Y42940D01*
X453201Y40355D02*
X452401Y41955D01*
X454001D01*
X453201Y40355D01*
X428398Y28544D02*
X427598Y30144D01*
X429198D01*
X428398Y28544D01*
X394055Y52979D02*
X393255Y54580D01*
X394855D01*
X394055Y52979D01*
X291260Y22979D02*
X290460Y24579D01*
X292060D01*
X291260Y22979D01*
X166390Y30985D02*
X165590Y32585D01*
X167190D01*
X166390Y30985D01*
X213330Y17852D02*
X212530Y19452D01*
X214130D01*
X213330Y17852D01*
X213376Y93758D02*
X212576Y95358D01*
X214176D01*
X213376Y93758D01*
X165984Y106444D02*
X165184Y108044D01*
X166784D01*
X165984Y106444D01*
X169168Y33812D02*
X168368Y35412D01*
X169968D01*
X169168Y33812D01*
X204961Y125539D02*
X204161Y127139D01*
X205761D01*
X204961Y125539D01*
X129724Y98334D02*
X128924Y99934D01*
X130524D01*
X129724Y98334D01*
X129842Y126720D02*
X129042Y128320D01*
X130642D01*
X129842Y126720D01*
X129685Y50854D02*
X128885Y52454D01*
X130485D01*
X129685Y50854D01*
Y22310D02*
X128885Y23910D01*
X130485D01*
X129685Y22310D01*
X125709Y85853D02*
X124909Y87454D01*
X126509D01*
X125709Y85853D01*
X145158Y82940D02*
X144358Y84540D01*
X145958D01*
X145158Y82940D01*
X152992Y74318D02*
X152192Y75918D01*
X153792D01*
X152992Y74318D01*
X152795Y67704D02*
X151995Y69304D01*
X153595D01*
X152795Y67704D01*
X299897Y33506D02*
X299097Y35106D01*
X300697D01*
X299897Y33506D01*
X300143Y39247D02*
X299343Y40847D01*
X300943D01*
X300143Y39247D01*
X312008Y46562D02*
X311208Y48162D01*
X312808D01*
X312008Y46562D01*
X311968Y25342D02*
X311169Y26942D01*
X312769D01*
X311968Y25342D01*
X101732Y96129D02*
X100932Y97729D01*
X102532D01*
X101732Y96129D01*
X217362Y18098D02*
X216562Y19698D01*
X218162D01*
X217362Y18098D01*
X318071Y13924D02*
X317271Y15524D01*
X318871D01*
X318071Y13924D01*
X298701Y10853D02*
X297901Y12454D01*
X299501D01*
X298701Y10853D01*
X361929Y23452D02*
X361129Y25052D01*
X362729D01*
X361929Y23452D01*
X344449Y48570D02*
X343649Y50170D01*
X345249D01*
X344449Y48570D01*
X361850Y30263D02*
X361050Y31863D01*
X362650D01*
X361850Y30263D01*
X415512Y16641D02*
X414712Y18241D01*
X416312D01*
X415512Y16641D01*
X428366Y32527D02*
X427566Y34127D01*
X429166D01*
X428366Y32527D01*
X409016Y16562D02*
X408216Y18162D01*
X409816D01*
X409016Y16562D01*
X483189Y66385D02*
X482389Y67985D01*
X483989D01*
X483189Y66385D01*
X483071Y73826D02*
X482271Y75426D01*
X483871D01*
X483071Y73826D01*
X394055Y48964D02*
X393255Y50564D01*
X394855D01*
X394055Y48964D01*
X449449Y40420D02*
X448649Y42020D01*
X450249D01*
X449449Y40420D01*
X298780Y19476D02*
X297979Y21076D01*
X299580D01*
X298780Y19476D01*
X260630Y25499D02*
X259830Y27099D01*
X261430D01*
X260630Y25499D01*
X204618Y98238D02*
X203818Y99838D01*
X205418D01*
X204618Y98238D01*
X204696Y22743D02*
X203896Y24343D01*
X205496D01*
X204696Y22743D01*
X436929Y47861D02*
X436129Y49461D01*
X437729D01*
X436929Y47861D01*
X373307Y50460D02*
X372507Y52060D01*
X374107D01*
X373307Y50460D01*
X388740Y48885D02*
X387940Y50485D01*
X389540D01*
X388740Y48885D01*
X163628Y33819D02*
X162829Y35418D01*
X164428D01*
X163628Y33819D01*
X169173Y115738D02*
X168373Y117338D01*
X169973D01*
X169173Y115738D01*
X162761Y115626D02*
X161961Y117226D01*
X163561D01*
X162761Y115626D01*
X271083Y55243D02*
X270283Y56843D01*
X271883D01*
X271083Y55243D01*
X84764Y58176D02*
X83964Y59776D01*
X85564D01*
X84764Y58176D01*
X72874Y102232D02*
X72074Y103832D01*
X73674D01*
X72874Y102232D01*
X104331Y65854D02*
X103531Y67453D01*
X105131D01*
X104331Y65854D01*
M02*
