G04*
G04 #@! TF.GenerationSoftware,Altium Limited,Altium Designer,25.3.3 (18)*
G04*
G04 Layer_Physical_Order=2*
G04 Layer_Color=16711833*
%FSLAX25Y25*%
%MOIN*%
G70*
G04*
G04 #@! TF.SameCoordinates,666F3FC4-157B-4D1F-873D-C3E9C75C07DF*
G04*
G04*
G04 #@! TF.FilePolarity,Positive*
G04*
G01*
G75*
%ADD44C,0.06299*%
%ADD47C,0.02402*%
G36*
X505000D02*
X0D01*
Y150000D01*
X505000D01*
Y0D01*
D02*
G37*
%LPC*%
G36*
X495546Y134150D02*
X495500D01*
Y130500D01*
X499150D01*
Y130546D01*
X498867Y131602D01*
X498320Y132548D01*
X497548Y133320D01*
X496602Y133867D01*
X495546Y134150D01*
D02*
G37*
G36*
X10546D02*
X10500D01*
Y130500D01*
X14150D01*
Y130546D01*
X13867Y131602D01*
X13320Y132548D01*
X12548Y133320D01*
X11602Y133867D01*
X10546Y134150D01*
D02*
G37*
G36*
X9500D02*
X9454D01*
X8398Y133867D01*
X7452Y133320D01*
X6679Y132548D01*
X6133Y131602D01*
X5850Y130546D01*
Y130500D01*
X9500D01*
Y134150D01*
D02*
G37*
G36*
X494500D02*
X494454D01*
X493398Y133867D01*
X492452Y133320D01*
X491679Y132548D01*
X491133Y131602D01*
X490850Y130546D01*
Y130500D01*
X494500D01*
Y134150D01*
D02*
G37*
G36*
X499150Y129500D02*
X495500D01*
Y125850D01*
X495546D01*
X496602Y126133D01*
X497548Y126680D01*
X498320Y127452D01*
X498867Y128398D01*
X499150Y129454D01*
Y129500D01*
D02*
G37*
G36*
X494500D02*
X490850D01*
Y129454D01*
X491133Y128398D01*
X491679Y127452D01*
X492452Y126680D01*
X493398Y126133D01*
X494454Y125850D01*
X494500D01*
Y129500D01*
D02*
G37*
G36*
X14150D02*
X10500D01*
Y125850D01*
X10546D01*
X11602Y126133D01*
X12548Y126680D01*
X13320Y127452D01*
X13867Y128398D01*
X14150Y129454D01*
Y129500D01*
D02*
G37*
G36*
X9500D02*
X5850D01*
Y129454D01*
X6133Y128398D01*
X6679Y127452D01*
X7452Y126680D01*
X8398Y126133D01*
X9454Y125850D01*
X9500D01*
Y129500D01*
D02*
G37*
G36*
X130280Y129720D02*
X129405D01*
X128596Y129385D01*
X127977Y128766D01*
X127642Y127957D01*
Y127082D01*
X127977Y126273D01*
X128596Y125654D01*
X129405Y125319D01*
X130280D01*
X131089Y125654D01*
X131708Y126273D01*
X132043Y127082D01*
Y127957D01*
X131708Y128766D01*
X131089Y129385D01*
X130280Y129720D01*
D02*
G37*
G36*
X205398Y128539D02*
X204523D01*
X203714Y128204D01*
X203095Y127585D01*
X202760Y126776D01*
Y125901D01*
X203095Y125092D01*
X203714Y124473D01*
X204523Y124138D01*
X205398D01*
X206207Y124473D01*
X206826Y125092D01*
X207161Y125901D01*
Y126776D01*
X206826Y127585D01*
X206207Y128204D01*
X205398Y128539D01*
D02*
G37*
G36*
X394296Y127988D02*
X393421D01*
X392612Y127653D01*
X391992Y127034D01*
X391657Y126225D01*
Y125350D01*
X391992Y124541D01*
X392612Y123922D01*
X393421Y123587D01*
X394296D01*
X395105Y123922D01*
X395724Y124541D01*
X396059Y125350D01*
Y126225D01*
X395724Y127034D01*
X395105Y127653D01*
X394296Y127988D01*
D02*
G37*
G36*
X298115Y127043D02*
X297239D01*
X296430Y126708D01*
X295811Y126089D01*
X295476Y125280D01*
Y124405D01*
X295811Y123596D01*
X296430Y122977D01*
X297239Y122642D01*
X298115D01*
X298924Y122977D01*
X299543Y123596D01*
X299878Y124405D01*
Y125280D01*
X299543Y126089D01*
X298924Y126708D01*
X298115Y127043D01*
D02*
G37*
G36*
X312367Y125980D02*
X311491D01*
X310683Y125645D01*
X310063Y125026D01*
X309728Y124217D01*
Y123342D01*
X310063Y122533D01*
X310683Y121914D01*
X311491Y121579D01*
X312367D01*
X313176Y121914D01*
X313795Y122533D01*
X314130Y123342D01*
Y124217D01*
X313795Y125026D01*
X313176Y125645D01*
X312367Y125980D01*
D02*
G37*
G36*
X10546Y124150D02*
X10500D01*
Y120500D01*
X14150D01*
Y120546D01*
X13867Y121602D01*
X13320Y122548D01*
X12548Y123320D01*
X11602Y123867D01*
X10546Y124150D01*
D02*
G37*
G36*
X9500D02*
X9454D01*
X8398Y123867D01*
X7452Y123320D01*
X6679Y122548D01*
X6133Y121602D01*
X5850Y120546D01*
Y120500D01*
X9500D01*
Y124150D01*
D02*
G37*
G36*
X187643Y123185D02*
X186767D01*
X185958Y122850D01*
X185339Y122231D01*
X185004Y121422D01*
Y120546D01*
X185339Y119738D01*
X185958Y119118D01*
X186767Y118783D01*
X187643D01*
X188451Y119118D01*
X189070Y119738D01*
X189406Y120546D01*
Y121422D01*
X189070Y122231D01*
X188451Y122850D01*
X187643Y123185D01*
D02*
G37*
G36*
X495546Y124150D02*
X494454D01*
X493398Y123867D01*
X492452Y123320D01*
X491679Y122548D01*
X491133Y121602D01*
X490850Y120546D01*
Y119454D01*
X491133Y118398D01*
X491679Y117452D01*
X492452Y116680D01*
X493398Y116133D01*
X494454Y115850D01*
X495546D01*
X496602Y116133D01*
X497548Y116680D01*
X498320Y117452D01*
X498867Y118398D01*
X499150Y119454D01*
Y120546D01*
X498867Y121602D01*
X498320Y122548D01*
X497548Y123320D01*
X496602Y123867D01*
X495546Y124150D01*
D02*
G37*
G36*
X14150Y119500D02*
X10500D01*
Y115850D01*
X10546D01*
X11602Y116133D01*
X12548Y116680D01*
X13320Y117452D01*
X13867Y118398D01*
X14150Y119454D01*
Y119500D01*
D02*
G37*
G36*
X9500D02*
X5850D01*
Y119454D01*
X6133Y118398D01*
X6679Y117452D01*
X7452Y116680D01*
X8398Y116133D01*
X9454Y115850D01*
X9500D01*
Y119500D01*
D02*
G37*
G36*
X449847Y120114D02*
X448972D01*
X448163Y119779D01*
X447544Y119160D01*
X447209Y118351D01*
Y117476D01*
X447544Y116667D01*
X448163Y116048D01*
X448972Y115713D01*
X449847D01*
X450656Y116048D01*
X451275Y116667D01*
X451610Y117476D01*
Y118351D01*
X451275Y119160D01*
X450656Y119779D01*
X449847Y120114D01*
D02*
G37*
G36*
X169611Y118739D02*
X168736D01*
X167927Y118404D01*
X167307Y117785D01*
X166972Y116976D01*
Y116100D01*
X167307Y115291D01*
X167927Y114672D01*
X168736Y114337D01*
X169611D01*
X170420Y114672D01*
X171039Y115291D01*
X171374Y116100D01*
Y116976D01*
X171039Y117785D01*
X170420Y118404D01*
X169611Y118739D01*
D02*
G37*
G36*
X163199Y118627D02*
X162323D01*
X161514Y118292D01*
X160895Y117673D01*
X160560Y116864D01*
Y115988D01*
X160895Y115180D01*
X161514Y114560D01*
X162323Y114225D01*
X163199D01*
X164008Y114560D01*
X164627Y115180D01*
X164962Y115988D01*
Y116864D01*
X164627Y117673D01*
X164008Y118292D01*
X163199Y118627D01*
D02*
G37*
G36*
X155635Y115114D02*
X154759D01*
X153950Y114779D01*
X153331Y114160D01*
X152996Y113351D01*
Y112476D01*
X153331Y111667D01*
X153950Y111048D01*
X154759Y110713D01*
X155635D01*
X156444Y111048D01*
X157063Y111667D01*
X157398Y112476D01*
Y113351D01*
X157063Y114160D01*
X156444Y114779D01*
X155635Y115114D01*
D02*
G37*
G36*
X177800Y115110D02*
X176925D01*
X176116Y114775D01*
X175496Y114156D01*
X175161Y113347D01*
Y112472D01*
X175496Y111663D01*
X176116Y111044D01*
X176925Y110709D01*
X177800D01*
X178609Y111044D01*
X179228Y111663D01*
X179563Y112472D01*
Y113347D01*
X179228Y114156D01*
X178609Y114775D01*
X177800Y115110D01*
D02*
G37*
G36*
X163374Y111948D02*
X162498D01*
X161689Y111613D01*
X161071Y110994D01*
X160735Y110185D01*
Y109310D01*
X161071Y108501D01*
X161689Y107882D01*
X162498Y107547D01*
X163374D01*
X164183Y107882D01*
X164802Y108501D01*
X165137Y109310D01*
Y110185D01*
X164802Y110994D01*
X164183Y111613D01*
X163374Y111948D01*
D02*
G37*
G36*
X300044Y117043D02*
X299169D01*
X298360Y116708D01*
X297741Y116089D01*
X297406Y115280D01*
Y114404D01*
X297741Y113596D01*
X298360Y112977D01*
X298762Y112810D01*
X298715Y111747D01*
X298242Y111551D01*
X297622Y110932D01*
X297287Y110123D01*
Y109247D01*
X297622Y108438D01*
X298242Y107819D01*
X299050Y107484D01*
X299926D01*
X300735Y107819D01*
X301354Y108438D01*
X301689Y109247D01*
Y110123D01*
X301354Y110932D01*
X300735Y111551D01*
X300332Y111718D01*
X300379Y112780D01*
X300853Y112977D01*
X301472Y113596D01*
X301807Y114404D01*
Y115280D01*
X301472Y116089D01*
X300853Y116708D01*
X300044Y117043D01*
D02*
G37*
G36*
X429001Y111866D02*
X428125D01*
X427316Y111531D01*
X426697Y110912D01*
X426362Y110103D01*
Y109228D01*
X426697Y108419D01*
X427316Y107800D01*
X428125Y107465D01*
X429001D01*
X429810Y107800D01*
X430429Y108419D01*
X430764Y109228D01*
Y110103D01*
X430429Y110912D01*
X429810Y111531D01*
X429001Y111866D01*
D02*
G37*
G36*
X169690Y111650D02*
X168814D01*
X168005Y111315D01*
X167386Y110696D01*
X167051Y109887D01*
Y109011D01*
X167386Y108202D01*
X168005Y107583D01*
X168814Y107248D01*
X169690D01*
X170499Y107583D01*
X171118Y108202D01*
X171453Y109011D01*
Y109887D01*
X171118Y110696D01*
X170499Y111315D01*
X169690Y111650D01*
D02*
G37*
G36*
X495546Y114150D02*
X494454D01*
X493398Y113867D01*
X492452Y113321D01*
X491679Y112548D01*
X491133Y111602D01*
X490850Y110546D01*
Y109454D01*
X491133Y108398D01*
X491679Y107452D01*
X492452Y106679D01*
X493398Y106133D01*
X494454Y105850D01*
X495546D01*
X496602Y106133D01*
X497548Y106679D01*
X498320Y107452D01*
X498867Y108398D01*
X499150Y109454D01*
Y110546D01*
X498867Y111602D01*
X498320Y112548D01*
X497548Y113321D01*
X496602Y113867D01*
X495546Y114150D01*
D02*
G37*
G36*
X10546D02*
X9454D01*
X8398Y113867D01*
X7452Y113321D01*
X6679Y112548D01*
X6133Y111602D01*
X5850Y110546D01*
Y109454D01*
X6133Y108398D01*
X6679Y107452D01*
X7452Y106679D01*
X8398Y106133D01*
X9454Y105850D01*
X10546D01*
X11602Y106133D01*
X12548Y106679D01*
X13320Y107452D01*
X13867Y108398D01*
X14150Y109454D01*
Y110546D01*
X13867Y111602D01*
X13320Y112548D01*
X12548Y113321D01*
X11602Y113867D01*
X10546Y114150D01*
D02*
G37*
G36*
X362131Y109721D02*
X361255D01*
X360446Y109385D01*
X359827Y108766D01*
X359492Y107957D01*
Y107082D01*
X359827Y106273D01*
X360446Y105654D01*
X361255Y105319D01*
X362131D01*
X362940Y105654D01*
X363559Y106273D01*
X363894Y107082D01*
Y107957D01*
X363559Y108766D01*
X362940Y109385D01*
X362131Y109721D01*
D02*
G37*
G36*
X187206Y106730D02*
X186330D01*
X185522Y106395D01*
X184903Y105776D01*
X184567Y104967D01*
Y104092D01*
X184903Y103283D01*
X185522Y102664D01*
X186330Y102329D01*
X187206D01*
X188015Y102664D01*
X188634Y103283D01*
X188969Y104092D01*
Y104967D01*
X188634Y105776D01*
X188015Y106395D01*
X187206Y106730D01*
D02*
G37*
G36*
X378469Y106138D02*
X377594D01*
X376785Y105803D01*
X376166Y105184D01*
X375831Y104375D01*
Y103499D01*
X376166Y102690D01*
X376785Y102071D01*
X377594Y101736D01*
X378469D01*
X379278Y102071D01*
X379897Y102690D01*
X380232Y103499D01*
Y104375D01*
X379897Y105184D01*
X379278Y105803D01*
X378469Y106138D01*
D02*
G37*
G36*
X311855Y104209D02*
X310980D01*
X310171Y103874D01*
X309552Y103254D01*
X309217Y102446D01*
Y101570D01*
X309552Y100761D01*
X310171Y100142D01*
X310980Y99807D01*
X311855D01*
X312664Y100142D01*
X313283Y100761D01*
X313618Y101570D01*
Y102446D01*
X313283Y103254D01*
X312664Y103874D01*
X311855Y104209D01*
D02*
G37*
G36*
X261107D02*
X260231D01*
X259423Y103874D01*
X258804Y103254D01*
X258469Y102446D01*
Y101570D01*
X258804Y100761D01*
X259423Y100142D01*
X260231Y99807D01*
X261107D01*
X261916Y100142D01*
X262535Y100761D01*
X262870Y101570D01*
Y102446D01*
X262535Y103254D01*
X261916Y103874D01*
X261107Y104209D01*
D02*
G37*
G36*
X401501Y103972D02*
X400625D01*
X399816Y103637D01*
X399197Y103018D01*
X398862Y102209D01*
Y101334D01*
X399197Y100525D01*
X399816Y99906D01*
X400625Y99571D01*
X401501D01*
X402310Y99906D01*
X402929Y100525D01*
X403264Y101334D01*
Y102209D01*
X402929Y103018D01*
X402310Y103637D01*
X401501Y103972D01*
D02*
G37*
G36*
X344808Y102988D02*
X343932D01*
X343123Y102653D01*
X342504Y102034D01*
X342169Y101225D01*
Y100350D01*
X342504Y99541D01*
X343123Y98922D01*
X343932Y98587D01*
X344808D01*
X345617Y98922D01*
X346236Y99541D01*
X346571Y100350D01*
Y101225D01*
X346236Y102034D01*
X345617Y102653D01*
X344808Y102988D01*
D02*
G37*
G36*
X130162Y101335D02*
X129287D01*
X128478Y101000D01*
X127859Y100381D01*
X127524Y99572D01*
Y98696D01*
X127859Y97887D01*
X128478Y97268D01*
X129287Y96933D01*
X130162D01*
X130971Y97268D01*
X131590Y97887D01*
X131925Y98696D01*
Y99572D01*
X131590Y100381D01*
X130971Y101000D01*
X130162Y101335D01*
D02*
G37*
G36*
X205055Y101239D02*
X204180D01*
X203371Y100904D01*
X202752Y100285D01*
X202417Y99476D01*
Y98600D01*
X202752Y97791D01*
X203371Y97172D01*
X204180Y96837D01*
X205055D01*
X205864Y97172D01*
X206483Y97791D01*
X206819Y98600D01*
Y99476D01*
X206483Y100285D01*
X205864Y100904D01*
X205055Y101239D01*
D02*
G37*
G36*
X496575Y104172D02*
X493425D01*
X492753Y104083D01*
X492127Y103824D01*
X491589Y103411D01*
X491176Y102873D01*
X490917Y102247D01*
X490828Y101575D01*
Y98425D01*
X490917Y97753D01*
X491176Y97127D01*
X491589Y96589D01*
X492127Y96176D01*
X492753Y95917D01*
X493425Y95828D01*
X496575D01*
X497247Y95917D01*
X497873Y96176D01*
X498411Y96589D01*
X498824Y97127D01*
X499083Y97753D01*
X499172Y98425D01*
Y101575D01*
X499083Y102247D01*
X498824Y102873D01*
X498411Y103411D01*
X497873Y103824D01*
X497247Y104083D01*
X496575Y104172D01*
D02*
G37*
G36*
X11575D02*
X8425D01*
X7753Y104083D01*
X7127Y103824D01*
X6589Y103411D01*
X6176Y102873D01*
X5917Y102247D01*
X5828Y101575D01*
Y98425D01*
X5917Y97753D01*
X6176Y97127D01*
X6589Y96589D01*
X7127Y96176D01*
X7753Y95917D01*
X8425Y95828D01*
X11575D01*
X12247Y95917D01*
X12873Y96176D01*
X13411Y96589D01*
X13824Y97127D01*
X14083Y97753D01*
X14172Y98425D01*
Y101575D01*
X14083Y102247D01*
X13824Y102873D01*
X13411Y103411D01*
X12873Y103824D01*
X12247Y104083D01*
X11575Y104172D01*
D02*
G37*
G36*
X455674Y99327D02*
X454799D01*
X453990Y98992D01*
X453371Y98373D01*
X453035Y97564D01*
Y96688D01*
X453371Y95879D01*
X453990Y95260D01*
X454799Y94925D01*
X455674D01*
X456483Y95260D01*
X457102Y95879D01*
X457437Y96688D01*
Y97564D01*
X457102Y98373D01*
X456483Y98992D01*
X455674Y99327D01*
D02*
G37*
G36*
X102170Y99130D02*
X101295D01*
X100486Y98795D01*
X99867Y98176D01*
X99532Y97367D01*
Y96491D01*
X99867Y95683D01*
X100486Y95063D01*
X101295Y94728D01*
X102170D01*
X102979Y95063D01*
X103598Y95683D01*
X103933Y96491D01*
Y97367D01*
X103598Y98176D01*
X102979Y98795D01*
X102170Y99130D01*
D02*
G37*
G36*
X398981Y98697D02*
X398106D01*
X397297Y98362D01*
X396678Y97743D01*
X396342Y96934D01*
Y96058D01*
X396678Y95249D01*
X397297Y94630D01*
X398106Y94295D01*
X398981D01*
X399790Y94630D01*
X400409Y95249D01*
X400744Y96058D01*
Y96934D01*
X400409Y97743D01*
X399790Y98362D01*
X398981Y98697D01*
D02*
G37*
G36*
X298784Y98500D02*
X297909D01*
X297100Y98165D01*
X296481Y97546D01*
X296146Y96737D01*
Y95862D01*
X296481Y95053D01*
X297100Y94433D01*
X297909Y94098D01*
X298784D01*
X299593Y94433D01*
X300212Y95053D01*
X300547Y95862D01*
Y96737D01*
X300212Y97546D01*
X299593Y98165D01*
X298784Y98500D01*
D02*
G37*
G36*
X416619Y98303D02*
X415743D01*
X414934Y97968D01*
X414315Y97349D01*
X413980Y96540D01*
Y95665D01*
X414315Y94856D01*
X414934Y94237D01*
X415743Y93902D01*
X416619D01*
X417428Y94237D01*
X418047Y94856D01*
X418382Y95665D01*
Y96540D01*
X418047Y97349D01*
X417428Y97968D01*
X416619Y98303D01*
D02*
G37*
G36*
X218272Y96846D02*
X217397D01*
X216588Y96511D01*
X215969Y95892D01*
X215634Y95083D01*
Y94208D01*
X215969Y93399D01*
X216588Y92780D01*
X217397Y92445D01*
X218272D01*
X219081Y92780D01*
X219700Y93399D01*
X220035Y94208D01*
Y95083D01*
X219700Y95892D01*
X219081Y96511D01*
X218272Y96846D01*
D02*
G37*
G36*
X405477Y94917D02*
X404602D01*
X403793Y94582D01*
X403174Y93963D01*
X402839Y93154D01*
Y92279D01*
X403174Y91470D01*
X403793Y90851D01*
X404602Y90516D01*
X405477D01*
X406286Y90851D01*
X406905Y91470D01*
X407240Y92279D01*
Y93154D01*
X406905Y93963D01*
X406286Y94582D01*
X405477Y94917D01*
D02*
G37*
G36*
X377997Y94799D02*
X377121D01*
X376312Y94464D01*
X375693Y93845D01*
X375358Y93036D01*
Y92161D01*
X375693Y91352D01*
X376312Y90733D01*
X377121Y90398D01*
X377997D01*
X378806Y90733D01*
X379425Y91352D01*
X379760Y92161D01*
Y93036D01*
X379425Y93845D01*
X378806Y94464D01*
X377997Y94799D01*
D02*
G37*
G36*
X153430Y77319D02*
X152554D01*
X151745Y76984D01*
X151126Y76365D01*
X150791Y75556D01*
Y74680D01*
X151126Y73871D01*
X151745Y73252D01*
X152554Y72917D01*
X153430D01*
X154239Y73252D01*
X154858Y73871D01*
X155193Y74680D01*
Y75556D01*
X154858Y76365D01*
X154239Y76984D01*
X153430Y77319D01*
D02*
G37*
G36*
X128171Y69051D02*
X127296D01*
X126487Y68716D01*
X125868Y68097D01*
X125533Y67288D01*
Y66413D01*
X125868Y65604D01*
X126487Y64985D01*
X127296Y64650D01*
X128171D01*
X128980Y64985D01*
X129599Y65604D01*
X129934Y66413D01*
Y67288D01*
X129599Y68097D01*
X128980Y68716D01*
X128171Y69051D01*
D02*
G37*
G36*
X104769Y68854D02*
X103893D01*
X103084Y68519D01*
X102465Y67900D01*
X102130Y67091D01*
Y66216D01*
X102465Y65407D01*
X103084Y64788D01*
X103893Y64453D01*
X104769D01*
X105577Y64788D01*
X106196Y65407D01*
X106532Y66216D01*
Y67091D01*
X106196Y67900D01*
X105577Y68519D01*
X104769Y68854D01*
D02*
G37*
G36*
X130123Y53854D02*
X129247D01*
X128438Y53519D01*
X127819Y52900D01*
X127484Y52091D01*
Y51216D01*
X127819Y50407D01*
X128438Y49788D01*
X129247Y49453D01*
X130123D01*
X130932Y49788D01*
X131551Y50407D01*
X131886Y51216D01*
Y52091D01*
X131551Y52900D01*
X130932Y53519D01*
X130123Y53854D01*
D02*
G37*
G36*
X204808Y52988D02*
X203932D01*
X203123Y52653D01*
X202504Y52034D01*
X202169Y51225D01*
Y50350D01*
X202504Y49541D01*
X203123Y48922D01*
X203932Y48587D01*
X204808D01*
X205617Y48922D01*
X206236Y49541D01*
X206571Y50350D01*
Y51225D01*
X206236Y52034D01*
X205617Y52653D01*
X204808Y52988D01*
D02*
G37*
G36*
X394493Y51965D02*
X393617D01*
X392809Y51630D01*
X392189Y51010D01*
X391854Y50201D01*
Y49326D01*
X392189Y48517D01*
X392809Y47898D01*
X393617Y47563D01*
X394493D01*
X395302Y47898D01*
X395921Y48517D01*
X396256Y49326D01*
Y50201D01*
X395921Y51010D01*
X395302Y51630D01*
X394493Y51965D01*
D02*
G37*
G36*
X297288Y51256D02*
X296413D01*
X295604Y50921D01*
X294985Y50302D01*
X294650Y49493D01*
Y48617D01*
X294985Y47809D01*
X295604Y47189D01*
X296413Y46854D01*
X297288D01*
X298097Y47189D01*
X298716Y47809D01*
X299051Y48617D01*
Y49493D01*
X298716Y50302D01*
X298097Y50921D01*
X297288Y51256D01*
D02*
G37*
G36*
X312446Y49563D02*
X311570D01*
X310761Y49228D01*
X310142Y48609D01*
X309807Y47800D01*
Y46924D01*
X310142Y46116D01*
X310761Y45496D01*
X311570Y45161D01*
X312446D01*
X313254Y45496D01*
X313874Y46116D01*
X314209Y46924D01*
Y47800D01*
X313874Y48609D01*
X313254Y49228D01*
X312446Y49563D01*
D02*
G37*
G36*
X187714Y47727D02*
X186838D01*
X186029Y47392D01*
X185410Y46772D01*
X185075Y45963D01*
Y45088D01*
X185410Y44279D01*
X186029Y43660D01*
X186838Y43325D01*
X187714D01*
X188523Y43660D01*
X189142Y44279D01*
X189477Y45088D01*
Y45963D01*
X189142Y46772D01*
X188523Y47392D01*
X187714Y47727D01*
D02*
G37*
G36*
X449887Y43421D02*
X449011D01*
X448202Y43086D01*
X447583Y42467D01*
X447248Y41658D01*
Y40783D01*
X447583Y39974D01*
X448202Y39355D01*
X449011Y39020D01*
X449887D01*
X450696Y39355D01*
X451315Y39974D01*
X451650Y40783D01*
Y41658D01*
X451315Y42467D01*
X450696Y43086D01*
X449887Y43421D01*
D02*
G37*
G36*
X164021Y42791D02*
X163145D01*
X162336Y42456D01*
X161717Y41837D01*
X161382Y41028D01*
Y40153D01*
X161717Y39344D01*
X162336Y38725D01*
X163145Y38390D01*
X164021D01*
X164829Y38725D01*
X165448Y39344D01*
X165784Y40153D01*
Y41028D01*
X165448Y41837D01*
X164829Y42456D01*
X164021Y42791D01*
D02*
G37*
G36*
X169650Y42713D02*
X168775D01*
X167966Y42378D01*
X167347Y41758D01*
X167012Y40950D01*
Y40074D01*
X167347Y39265D01*
X167966Y38646D01*
X168775Y38311D01*
X169650D01*
X170459Y38646D01*
X171078Y39265D01*
X171413Y40074D01*
Y40950D01*
X171078Y41758D01*
X170459Y42378D01*
X169650Y42713D01*
D02*
G37*
G36*
X300581Y42248D02*
X299705D01*
X298896Y41912D01*
X298277Y41293D01*
X297942Y40485D01*
Y39609D01*
X298277Y38800D01*
X298896Y38181D01*
X299705Y37846D01*
X300581D01*
X301390Y38181D01*
X302009Y38800D01*
X302344Y39609D01*
Y40485D01*
X302009Y41293D01*
X301390Y41912D01*
X300581Y42248D01*
D02*
G37*
G36*
X155595Y39917D02*
X154720D01*
X153911Y39582D01*
X153292Y38963D01*
X152957Y38154D01*
Y37279D01*
X153292Y36470D01*
X153911Y35851D01*
X154720Y35516D01*
X155595D01*
X156404Y35851D01*
X157023Y36470D01*
X157358Y37279D01*
Y38154D01*
X157023Y38963D01*
X156404Y39582D01*
X155595Y39917D01*
D02*
G37*
G36*
X178076Y39799D02*
X177200D01*
X176391Y39464D01*
X175772Y38845D01*
X175437Y38036D01*
Y37161D01*
X175772Y36352D01*
X176391Y35733D01*
X177200Y35398D01*
X178076D01*
X178884Y35733D01*
X179504Y36352D01*
X179839Y37161D01*
Y38036D01*
X179504Y38845D01*
X178884Y39464D01*
X178076Y39799D01*
D02*
G37*
G36*
X164066Y36819D02*
X163191D01*
X162382Y36484D01*
X161763Y35865D01*
X161428Y35056D01*
Y34181D01*
X161763Y33372D01*
X162382Y32753D01*
X163191Y32418D01*
X164066D01*
X164875Y32753D01*
X165494Y33372D01*
X165829Y34181D01*
Y35056D01*
X165494Y35865D01*
X164875Y36484D01*
X164066Y36819D01*
D02*
G37*
G36*
X169606Y36812D02*
X168730D01*
X167921Y36477D01*
X167302Y35858D01*
X166967Y35049D01*
Y34174D01*
X167302Y33365D01*
X167921Y32746D01*
X168730Y32411D01*
X169606D01*
X170415Y32746D01*
X171034Y33365D01*
X171369Y34174D01*
Y35049D01*
X171034Y35858D01*
X170415Y36477D01*
X169606Y36812D01*
D02*
G37*
G36*
X300335Y36507D02*
X299459D01*
X298650Y36172D01*
X298031Y35553D01*
X297696Y34744D01*
Y33868D01*
X298031Y33059D01*
X298650Y32440D01*
X299459Y32105D01*
X300335D01*
X301144Y32440D01*
X301763Y33059D01*
X302098Y33868D01*
Y34744D01*
X301763Y35553D01*
X301144Y36172D01*
X300335Y36507D01*
D02*
G37*
G36*
X428804Y35528D02*
X427928D01*
X427119Y35192D01*
X426500Y34573D01*
X426165Y33764D01*
Y32889D01*
X426500Y32080D01*
X427119Y31461D01*
X427928Y31126D01*
X428804D01*
X429613Y31461D01*
X430232Y32080D01*
X430567Y32889D01*
Y33764D01*
X430232Y34573D01*
X429613Y35192D01*
X428804Y35528D01*
D02*
G37*
G36*
X362288Y33264D02*
X361413D01*
X360604Y32929D01*
X359985Y32310D01*
X359650Y31501D01*
Y30625D01*
X359985Y29816D01*
X360604Y29197D01*
X361413Y28862D01*
X362288D01*
X363097Y29197D01*
X363716Y29816D01*
X364051Y30625D01*
Y31501D01*
X363716Y32310D01*
X363097Y32929D01*
X362288Y33264D01*
D02*
G37*
G36*
X186952Y31425D02*
X186076D01*
X185267Y31090D01*
X184648Y30471D01*
X184313Y29662D01*
Y28787D01*
X184648Y27978D01*
X185267Y27359D01*
X186076Y27024D01*
X186952D01*
X187760Y27359D01*
X188380Y27978D01*
X188715Y28787D01*
Y29662D01*
X188380Y30471D01*
X187760Y31090D01*
X186952Y31425D01*
D02*
G37*
G36*
X378748Y30395D02*
X377872D01*
X377063Y30060D01*
X376444Y29441D01*
X376109Y28633D01*
Y27757D01*
X376444Y26948D01*
X377063Y26329D01*
X377872Y25994D01*
X378748D01*
X379557Y26329D01*
X380176Y26948D01*
X380511Y27757D01*
Y28633D01*
X380176Y29441D01*
X379557Y30060D01*
X378748Y30395D01*
D02*
G37*
G36*
X261068Y28500D02*
X260192D01*
X259383Y28165D01*
X258764Y27546D01*
X258429Y26737D01*
Y25861D01*
X258764Y25053D01*
X259383Y24433D01*
X260192Y24098D01*
X261068D01*
X261877Y24433D01*
X262496Y25053D01*
X262831Y25861D01*
Y26737D01*
X262496Y27546D01*
X261877Y28165D01*
X261068Y28500D01*
D02*
G37*
G36*
X312406Y28343D02*
X311531D01*
X310722Y28008D01*
X310103Y27388D01*
X309768Y26579D01*
Y25704D01*
X310103Y24895D01*
X310722Y24276D01*
X311531Y23941D01*
X312406D01*
X313215Y24276D01*
X313834Y24895D01*
X314169Y25704D01*
Y26579D01*
X313834Y27388D01*
X313215Y28008D01*
X312406Y28343D01*
D02*
G37*
G36*
X402013Y28224D02*
X401137D01*
X400328Y27889D01*
X399709Y27270D01*
X399374Y26461D01*
Y25586D01*
X399709Y24777D01*
X400328Y24158D01*
X401137Y23823D01*
X402013D01*
X402821Y24158D01*
X403441Y24777D01*
X403776Y25586D01*
Y26461D01*
X403441Y27270D01*
X402821Y27889D01*
X402013Y28224D01*
D02*
G37*
G36*
X470359Y27673D02*
X469484D01*
X468675Y27338D01*
X468055Y26719D01*
X467721Y25910D01*
Y25035D01*
X468055Y24226D01*
X468675Y23607D01*
X469484Y23272D01*
X470359D01*
X471168Y23607D01*
X471787Y24226D01*
X472122Y25035D01*
Y25910D01*
X471787Y26719D01*
X471168Y27338D01*
X470359Y27673D01*
D02*
G37*
G36*
X344847Y26837D02*
X343971D01*
X343162Y26502D01*
X342543Y25883D01*
X342208Y25074D01*
Y24198D01*
X342543Y23389D01*
X343162Y22770D01*
X343971Y22435D01*
X344847D01*
X345655Y22770D01*
X346274Y23389D01*
X346609Y24198D01*
Y25074D01*
X346274Y25883D01*
X345655Y26502D01*
X344847Y26837D01*
D02*
G37*
G36*
X205134Y25744D02*
X204258D01*
X203449Y25409D01*
X202830Y24790D01*
X202495Y23981D01*
Y23105D01*
X202830Y22296D01*
X203449Y21677D01*
X204258Y21342D01*
X205134D01*
X205943Y21677D01*
X206562Y22296D01*
X206897Y23105D01*
Y23981D01*
X206562Y24790D01*
X205943Y25409D01*
X205134Y25744D01*
D02*
G37*
G36*
X130123Y25311D02*
X129247D01*
X128438Y24976D01*
X127819Y24357D01*
X127484Y23548D01*
Y22672D01*
X127819Y21864D01*
X128438Y21245D01*
X129247Y20910D01*
X130123D01*
X130932Y21245D01*
X131551Y21864D01*
X131886Y22672D01*
Y23548D01*
X131551Y24357D01*
X130932Y24976D01*
X130123Y25311D01*
D02*
G37*
G36*
X398824Y22713D02*
X397948D01*
X397139Y22377D01*
X396520Y21758D01*
X396185Y20950D01*
Y20074D01*
X396520Y19265D01*
X397139Y18646D01*
X397948Y18311D01*
X398824D01*
X399633Y18646D01*
X400252Y19265D01*
X400587Y20074D01*
Y20950D01*
X400252Y21758D01*
X399633Y22377D01*
X398824Y22713D01*
D02*
G37*
G36*
X217800Y21098D02*
X216924D01*
X216116Y20763D01*
X215496Y20144D01*
X215161Y19335D01*
Y18460D01*
X215496Y17651D01*
X216116Y17032D01*
X216924Y16697D01*
X217800D01*
X218609Y17032D01*
X219228Y17651D01*
X219563Y18460D01*
Y19335D01*
X219228Y20144D01*
X218609Y20763D01*
X217800Y21098D01*
D02*
G37*
G36*
X409453Y19563D02*
X408578D01*
X407769Y19228D01*
X407150Y18609D01*
X406815Y17800D01*
Y16924D01*
X407150Y16116D01*
X407769Y15496D01*
X408578Y15161D01*
X409453D01*
X410262Y15496D01*
X410882Y16116D01*
X411216Y16924D01*
Y17800D01*
X410882Y18609D01*
X410262Y19228D01*
X409453Y19563D01*
D02*
G37*
G36*
X453430Y18072D02*
X452554D01*
X451746Y17737D01*
X451126Y17118D01*
X450791Y16309D01*
Y15433D01*
X451126Y14625D01*
X451746Y14006D01*
X452554Y13670D01*
X453430D01*
X454239Y14006D01*
X454858Y14625D01*
X455193Y15433D01*
Y16309D01*
X454858Y17118D01*
X454239Y17737D01*
X453430Y18072D01*
D02*
G37*
G36*
X365546Y14150D02*
X365500D01*
Y10500D01*
X369150D01*
Y10546D01*
X368867Y11602D01*
X368320Y12548D01*
X367548Y13320D01*
X366602Y13867D01*
X365546Y14150D01*
D02*
G37*
G36*
X364500D02*
X364454D01*
X363398Y13867D01*
X362452Y13320D01*
X361680Y12548D01*
X361133Y11602D01*
X360850Y10546D01*
Y10500D01*
X364500D01*
Y14150D01*
D02*
G37*
G36*
X299139Y13854D02*
X298263D01*
X297454Y13519D01*
X296835Y12900D01*
X296500Y12091D01*
Y11216D01*
X296835Y10407D01*
X297454Y9788D01*
X298263Y9453D01*
X299139D01*
X299947Y9788D01*
X300567Y10407D01*
X300902Y11216D01*
Y12091D01*
X300567Y12900D01*
X299947Y13519D01*
X299139Y13854D01*
D02*
G37*
G36*
X385546Y14150D02*
X384454D01*
X383398Y13867D01*
X382452Y13320D01*
X381680Y12548D01*
X381133Y11602D01*
X380850Y10546D01*
Y9454D01*
X381133Y8398D01*
X381680Y7452D01*
X382452Y6679D01*
X383398Y6133D01*
X384454Y5850D01*
X385546D01*
X386602Y6133D01*
X387548Y6679D01*
X388320Y7452D01*
X388867Y8398D01*
X389150Y9454D01*
Y10546D01*
X388867Y11602D01*
X388320Y12548D01*
X387548Y13320D01*
X386602Y13867D01*
X385546Y14150D01*
D02*
G37*
G36*
X375546D02*
X374454D01*
X373398Y13867D01*
X372452Y13320D01*
X371679Y12548D01*
X371133Y11602D01*
X370850Y10546D01*
Y9454D01*
X371133Y8398D01*
X371679Y7452D01*
X372452Y6679D01*
X373398Y6133D01*
X374454Y5850D01*
X375546D01*
X376602Y6133D01*
X377548Y6679D01*
X378321Y7452D01*
X378867Y8398D01*
X379150Y9454D01*
Y10546D01*
X378867Y11602D01*
X378321Y12548D01*
X377548Y13320D01*
X376602Y13867D01*
X375546Y14150D01*
D02*
G37*
G36*
X369150Y9500D02*
X365500D01*
Y5850D01*
X365546D01*
X366602Y6133D01*
X367548Y6679D01*
X368320Y7452D01*
X368867Y8398D01*
X369150Y9454D01*
Y9500D01*
D02*
G37*
G36*
X364500D02*
X360850D01*
Y9454D01*
X361133Y8398D01*
X361680Y7452D01*
X362452Y6679D01*
X363398Y6133D01*
X364454Y5850D01*
X364500D01*
Y9500D01*
D02*
G37*
G36*
X396575Y14172D02*
X393425D01*
X392753Y14083D01*
X392127Y13824D01*
X391589Y13411D01*
X391176Y12873D01*
X390917Y12247D01*
X390828Y11575D01*
Y8425D01*
X390917Y7753D01*
X391176Y7127D01*
X391589Y6589D01*
X392127Y6176D01*
X392753Y5917D01*
X393425Y5828D01*
X396575D01*
X397247Y5917D01*
X397873Y6176D01*
X398411Y6589D01*
X398824Y7127D01*
X399083Y7753D01*
X399172Y8425D01*
Y11575D01*
X399083Y12247D01*
X398824Y12873D01*
X398411Y13411D01*
X397873Y13824D01*
X397247Y14083D01*
X396575Y14172D01*
D02*
G37*
%LPD*%
D44*
X365000Y10000D02*
D03*
X495000Y130000D02*
D03*
X10000Y120000D02*
D03*
Y130000D02*
D03*
D47*
X165984Y118228D02*
D03*
X183504Y48087D02*
D03*
X166417Y42750D02*
D03*
X183307Y27283D02*
D03*
X447314Y23156D02*
D03*
X455056Y21831D02*
D03*
X298805Y105327D02*
D03*
X294291Y104331D02*
D03*
X199555Y113409D02*
D03*
X295276Y28504D02*
D03*
X199016Y37626D02*
D03*
X299291Y30236D02*
D03*
X290480Y28457D02*
D03*
X294094Y39370D02*
D03*
X180591Y39882D02*
D03*
X180472Y115433D02*
D03*
X289843Y104095D02*
D03*
X183661Y102795D02*
D03*
X145591Y113150D02*
D03*
X183583Y124173D02*
D03*
X151378Y112716D02*
D03*
X146197Y37781D02*
D03*
X151603Y37756D02*
D03*
X404764Y122984D02*
D03*
X405000Y47099D02*
D03*
X393976Y129646D02*
D03*
X428661Y105866D02*
D03*
X436890Y125433D02*
D03*
X449449Y122323D02*
D03*
X447559Y98740D02*
D03*
X470236Y102520D02*
D03*
X422402Y95906D02*
D03*
X388543Y125354D02*
D03*
X372992Y127008D02*
D03*
X344331Y125157D02*
D03*
X270394Y131693D02*
D03*
X318209Y90886D02*
D03*
X296220Y117283D02*
D03*
X298425Y87717D02*
D03*
X293268Y113661D02*
D03*
X290394Y99843D02*
D03*
X397402Y104016D02*
D03*
X361811Y100984D02*
D03*
X382323Y98543D02*
D03*
X377953Y108228D02*
D03*
X230028Y119151D02*
D03*
X397756Y28622D02*
D03*
X378071Y32362D02*
D03*
X382716Y22638D02*
D03*
X57874Y68347D02*
D03*
X49961Y67244D02*
D03*
X20472Y82933D02*
D03*
X485945Y11225D02*
D03*
X482992Y82028D02*
D03*
X28386Y84035D02*
D03*
X297244Y43071D02*
D03*
X109648Y93619D02*
D03*
X121890Y27402D02*
D03*
X121968Y102992D02*
D03*
X229173Y43740D02*
D03*
X453201Y41155D02*
D03*
X428398Y29344D02*
D03*
X394055Y53780D02*
D03*
X291260Y23779D02*
D03*
X166390Y31785D02*
D03*
X213330Y18652D02*
D03*
X213376Y94558D02*
D03*
X165984Y107244D02*
D03*
X125709Y86654D02*
D03*
X145158Y83740D02*
D03*
X152795Y68504D02*
D03*
X318071Y14724D02*
D03*
X361929Y24252D02*
D03*
X344449Y49370D02*
D03*
X415512Y17441D02*
D03*
X483189Y67185D02*
D03*
X483071Y74626D02*
D03*
X298780Y20276D02*
D03*
X436929Y48661D02*
D03*
X373307Y51260D02*
D03*
X388740Y49685D02*
D03*
X271083Y56043D02*
D03*
X84764Y58976D02*
D03*
X72874Y103032D02*
D03*
M02*
