G04*
G04 #@! TF.GenerationSoftware,Altium Limited,Altium Designer,25.3.3 (18)*
G04*
G04 Layer_Color=16711935*
%FSLAX25Y25*%
%MOIN*%
G70*
G04*
G04 #@! TF.SameCoordinates,666F3FC4-157B-4D1F-873D-C3E9C75C07DF*
G04*
G04*
G04 #@! TF.FilePolarity,Negative*
G04*
G01*
G75*
%ADD27C,0.07099*%
G04:AMPARAMS|DCode=28|XSize=70.99mil|YSize=70.99mil|CornerRadius=19.75mil|HoleSize=0mil|Usage=FLASHONLY|Rotation=180.000|XOffset=0mil|YOffset=0mil|HoleType=Round|Shape=RoundedRectangle|*
%AMROUNDEDRECTD28*
21,1,0.07099,0.03150,0,0,180.0*
21,1,0.03150,0.07099,0,0,180.0*
1,1,0.03950,-0.01575,0.01575*
1,1,0.03950,0.01575,0.01575*
1,1,0.03950,0.01575,-0.01575*
1,1,0.03950,-0.01575,-0.01575*
%
%ADD28ROUNDEDRECTD28*%
G04:AMPARAMS|DCode=29|XSize=70.99mil|YSize=70.99mil|CornerRadius=19.75mil|HoleSize=0mil|Usage=FLASHONLY|Rotation=90.000|XOffset=0mil|YOffset=0mil|HoleType=Round|Shape=RoundedRectangle|*
%AMROUNDEDRECTD29*
21,1,0.07099,0.03150,0,0,90.0*
21,1,0.03150,0.07099,0,0,90.0*
1,1,0.03950,0.01575,0.01575*
1,1,0.03950,0.01575,-0.01575*
1,1,0.03950,-0.01575,-0.01575*
1,1,0.03950,-0.01575,0.01575*
%
%ADD29ROUNDEDRECTD29*%
%ADD30C,0.03202*%
D27*
X365000Y10000D02*
D03*
X375000D02*
D03*
X385000D02*
D03*
X495000Y110000D02*
D03*
Y120000D02*
D03*
Y130000D02*
D03*
X10000Y110000D02*
D03*
Y120000D02*
D03*
Y130000D02*
D03*
D28*
X395000Y10000D02*
D03*
D29*
X495000Y100000D02*
D03*
X10000D02*
D03*
D30*
X165984Y118228D02*
D03*
X183504Y48087D02*
D03*
X166417Y42750D02*
D03*
X187276Y45526D02*
D03*
X169213Y40512D02*
D03*
X163583Y40591D02*
D03*
X183307Y27283D02*
D03*
X447314Y23156D02*
D03*
X455056Y21831D02*
D03*
X298805Y105327D02*
D03*
X299488Y109685D02*
D03*
X294291Y104331D02*
D03*
X177362Y112909D02*
D03*
X199555Y113409D02*
D03*
X295276Y28504D02*
D03*
X199016Y37626D02*
D03*
X186514Y29224D02*
D03*
X299291Y30236D02*
D03*
X290480Y28457D02*
D03*
X294094Y39370D02*
D03*
X177638Y37598D02*
D03*
X180591Y39882D02*
D03*
X186768Y104530D02*
D03*
X180472Y115433D02*
D03*
X289843Y104095D02*
D03*
X183661Y102795D02*
D03*
X162936Y109748D02*
D03*
X169252Y109449D02*
D03*
X204370Y50787D02*
D03*
X145591Y113150D02*
D03*
X183583Y124173D02*
D03*
X151378Y112716D02*
D03*
X187205Y120984D02*
D03*
X155197Y112913D02*
D03*
X146197Y37781D02*
D03*
X151603Y37756D02*
D03*
X155157Y37717D02*
D03*
X127733Y66850D02*
D03*
X404764Y122984D02*
D03*
X405000Y47099D02*
D03*
X393976Y129646D02*
D03*
X401063Y101772D02*
D03*
X405039Y92716D02*
D03*
X398543Y96496D02*
D03*
X428661Y105866D02*
D03*
X436890Y125433D02*
D03*
X449449Y122323D02*
D03*
X449409Y117913D02*
D03*
X447559Y98740D02*
D03*
X470236Y102520D02*
D03*
X455236Y97126D02*
D03*
X428563Y109665D02*
D03*
X422402Y95906D02*
D03*
X416181Y96102D02*
D03*
X388543Y125354D02*
D03*
X344370Y100787D02*
D03*
X372992Y127008D02*
D03*
X361693Y107520D02*
D03*
X344331Y125157D02*
D03*
X393858Y125787D02*
D03*
X270394Y131693D02*
D03*
X318209Y90886D02*
D03*
X298346Y96299D02*
D03*
X311417Y102008D02*
D03*
X299606Y114842D02*
D03*
X296220Y117283D02*
D03*
X298425Y87717D02*
D03*
X293268Y113661D02*
D03*
X290394Y99843D02*
D03*
X397402Y104016D02*
D03*
X378031Y103937D02*
D03*
X361811Y100984D02*
D03*
X382323Y98543D02*
D03*
X377953Y108228D02*
D03*
X377559Y92598D02*
D03*
X311929Y123779D02*
D03*
X297677Y124843D02*
D03*
X260669Y102008D02*
D03*
X230028Y119151D02*
D03*
X217835Y94646D02*
D03*
X296850Y49055D02*
D03*
X398386Y20512D02*
D03*
X378310Y28195D02*
D03*
X397756Y28622D02*
D03*
X378071Y32362D02*
D03*
X382716Y22638D02*
D03*
X401575Y26024D02*
D03*
X344409Y24636D02*
D03*
X57874Y68347D02*
D03*
X49961Y67244D02*
D03*
X20472Y82933D02*
D03*
X469921Y25472D02*
D03*
X452992Y15871D02*
D03*
X485945Y11225D02*
D03*
X482992Y82028D02*
D03*
X28386Y84035D02*
D03*
X297244Y43071D02*
D03*
X109648Y93619D02*
D03*
X121890Y27402D02*
D03*
X121968Y102992D02*
D03*
X229173Y43740D02*
D03*
X453201Y41155D02*
D03*
X428398Y29344D02*
D03*
X394055Y53780D02*
D03*
X291260Y23779D02*
D03*
X166390Y31785D02*
D03*
X213330Y18652D02*
D03*
X213376Y94558D02*
D03*
X165984Y107244D02*
D03*
X169168Y34612D02*
D03*
X204961Y126339D02*
D03*
X129724Y99134D02*
D03*
X129842Y127520D02*
D03*
X129685Y51653D02*
D03*
Y23110D02*
D03*
X125709Y86654D02*
D03*
X145158Y83740D02*
D03*
X152992Y75118D02*
D03*
X152795Y68504D02*
D03*
X299897Y34306D02*
D03*
X300143Y40047D02*
D03*
X312008Y47362D02*
D03*
X311968Y26142D02*
D03*
X101732Y96929D02*
D03*
X217362Y18898D02*
D03*
X318071Y14724D02*
D03*
X298701Y11654D02*
D03*
X361929Y24252D02*
D03*
X344449Y49370D02*
D03*
X361850Y31063D02*
D03*
X415512Y17441D02*
D03*
X428366Y33327D02*
D03*
X409016Y17362D02*
D03*
X483189Y67185D02*
D03*
X483071Y74626D02*
D03*
X394055Y49764D02*
D03*
X449449Y41221D02*
D03*
X298780Y20276D02*
D03*
X260630Y26299D02*
D03*
X204618Y99038D02*
D03*
X204696Y23543D02*
D03*
X436929Y48661D02*
D03*
X373307Y51260D02*
D03*
X388740Y49685D02*
D03*
X163628Y34618D02*
D03*
X169173Y116538D02*
D03*
X162761Y116426D02*
D03*
X271083Y56043D02*
D03*
X84764Y58976D02*
D03*
X72874Y103032D02*
D03*
X104331Y66654D02*
D03*
M02*
