G04*
G04 #@! TF.GenerationSoftware,Altium Limited,Altium Designer,25.3.3 (18)*
G04*
G04 Layer_Color=8388736*
%FSLAX25Y25*%
%MOIN*%
G70*
G04*
G04 #@! TF.SameCoordinates,666F3FC4-157B-4D1F-873D-C3E9C75C07DF*
G04*
G04*
G04 #@! TF.FilePolarity,Negative*
G04*
G01*
G75*
%ADD13R,0.02769X0.05721*%
%ADD14R,0.06587X0.04816*%
%ADD15R,0.06312X0.05524*%
%ADD16R,0.04737X0.06509*%
%ADD17R,0.04816X0.06587*%
%ADD18R,0.05524X0.06312*%
%ADD19R,0.04800X0.02200*%
%ADD20R,0.06509X0.04737*%
%ADD21R,0.05721X0.02769*%
%ADD22R,0.03162X0.05918*%
%ADD23R,0.04724X0.04724*%
G04:AMPARAMS|DCode=24|XSize=69.12mil|YSize=24.1mil|CornerRadius=12.05mil|HoleSize=0mil|Usage=FLASHONLY|Rotation=270.000|XOffset=0mil|YOffset=0mil|HoleType=Round|Shape=RoundedRectangle|*
%AMROUNDEDRECTD24*
21,1,0.06912,0.00000,0,0,270.0*
21,1,0.04502,0.02410,0,0,270.0*
1,1,0.02410,0.00000,-0.02251*
1,1,0.02410,0.00000,0.02251*
1,1,0.02410,0.00000,0.02251*
1,1,0.02410,0.00000,-0.02251*
%
%ADD24ROUNDEDRECTD24*%
%ADD25R,0.02410X0.06912*%
%ADD26C,0.04737*%
%ADD27C,0.07099*%
G04:AMPARAMS|DCode=28|XSize=70.99mil|YSize=70.99mil|CornerRadius=19.75mil|HoleSize=0mil|Usage=FLASHONLY|Rotation=180.000|XOffset=0mil|YOffset=0mil|HoleType=Round|Shape=RoundedRectangle|*
%AMROUNDEDRECTD28*
21,1,0.07099,0.03150,0,0,180.0*
21,1,0.03150,0.07099,0,0,180.0*
1,1,0.03950,-0.01575,0.01575*
1,1,0.03950,0.01575,0.01575*
1,1,0.03950,0.01575,-0.01575*
1,1,0.03950,-0.01575,-0.01575*
%
%ADD28ROUNDEDRECTD28*%
G04:AMPARAMS|DCode=29|XSize=70.99mil|YSize=70.99mil|CornerRadius=19.75mil|HoleSize=0mil|Usage=FLASHONLY|Rotation=90.000|XOffset=0mil|YOffset=0mil|HoleType=Round|Shape=RoundedRectangle|*
%AMROUNDEDRECTD29*
21,1,0.07099,0.03150,0,0,90.0*
21,1,0.03150,0.07099,0,0,90.0*
1,1,0.03950,0.01575,0.01575*
1,1,0.03950,0.01575,-0.01575*
1,1,0.03950,-0.01575,-0.01575*
1,1,0.03950,-0.01575,0.01575*
%
%ADD29ROUNDEDRECTD29*%
%ADD30C,0.03202*%
D13*
X163858Y81929D02*
D03*
X168976D02*
D03*
X166417Y90394D02*
D03*
X96339Y87559D02*
D03*
X91220D02*
D03*
X93779Y79094D02*
D03*
X78189Y79114D02*
D03*
X83307D02*
D03*
X80748Y87579D02*
D03*
X162402Y50630D02*
D03*
X157283D02*
D03*
X159843Y42165D02*
D03*
X172913D02*
D03*
X170354Y50630D02*
D03*
X175472D02*
D03*
X159843Y32953D02*
D03*
X162402Y24488D02*
D03*
X157283D02*
D03*
X172913Y32933D02*
D03*
X175472Y24468D02*
D03*
X170354D02*
D03*
X162126Y125906D02*
D03*
X157008D02*
D03*
X159567Y117441D02*
D03*
X175039Y125787D02*
D03*
X169921D02*
D03*
X172480Y117323D02*
D03*
X156968Y99727D02*
D03*
X162087D02*
D03*
X159528Y108192D02*
D03*
X168583Y143524D02*
D03*
X163465D02*
D03*
X166024Y135059D02*
D03*
X168858Y68307D02*
D03*
X163740D02*
D03*
X166299Y59842D02*
D03*
X172480Y108133D02*
D03*
X175039Y99668D02*
D03*
X169921D02*
D03*
X163976Y6772D02*
D03*
X169095D02*
D03*
X166535Y15236D02*
D03*
D14*
X447835Y103386D02*
D03*
Y109764D02*
D03*
X148898Y119488D02*
D03*
Y125866D02*
D03*
X57874Y79350D02*
D03*
Y72972D02*
D03*
X125827Y75630D02*
D03*
Y82008D02*
D03*
X147520Y74961D02*
D03*
Y68583D02*
D03*
X20590Y72052D02*
D03*
Y78430D02*
D03*
X149094Y43661D02*
D03*
Y50039D02*
D03*
X318110Y25748D02*
D03*
Y19370D02*
D03*
X76811Y70669D02*
D03*
Y64291D02*
D03*
X111496Y75472D02*
D03*
Y69095D02*
D03*
Y82874D02*
D03*
Y89252D02*
D03*
X104213Y91496D02*
D03*
Y85118D02*
D03*
X356142Y107480D02*
D03*
Y101102D02*
D03*
X356299Y30906D02*
D03*
Y24528D02*
D03*
X318228Y101772D02*
D03*
Y95394D02*
D03*
X149016Y31417D02*
D03*
Y25039D02*
D03*
X372165Y104095D02*
D03*
Y110473D02*
D03*
X148740Y100827D02*
D03*
Y107205D02*
D03*
X372362Y28189D02*
D03*
Y34567D02*
D03*
X447362Y26890D02*
D03*
Y33268D02*
D03*
D15*
X50118Y79272D02*
D03*
Y72579D02*
D03*
X28504Y72264D02*
D03*
Y78957D02*
D03*
D16*
X458032Y7013D02*
D03*
X465512D02*
D03*
X465551Y15792D02*
D03*
X458071D02*
D03*
X416181Y33228D02*
D03*
X423661D02*
D03*
X132874Y66988D02*
D03*
X140354D02*
D03*
X140118Y75354D02*
D03*
X132638D02*
D03*
X140197Y83602D02*
D03*
X132717D02*
D03*
X134724Y51693D02*
D03*
X142205D02*
D03*
X192233Y126434D02*
D03*
X199713D02*
D03*
X199528Y98976D02*
D03*
X192047D02*
D03*
X303780Y85984D02*
D03*
X311260D02*
D03*
X332598Y32717D02*
D03*
X325118D02*
D03*
X192087Y50748D02*
D03*
X199567D02*
D03*
X340709Y55472D02*
D03*
X348189D02*
D03*
X416221Y117795D02*
D03*
X423701D02*
D03*
X440906Y109764D02*
D03*
X433425D02*
D03*
X324961Y41063D02*
D03*
X332441D02*
D03*
X134685Y127520D02*
D03*
X142165D02*
D03*
X325276Y117008D02*
D03*
X332756D02*
D03*
Y108819D02*
D03*
X325276D02*
D03*
X134606Y23425D02*
D03*
X142087D02*
D03*
X191940Y23582D02*
D03*
X199420D02*
D03*
X340551Y131142D02*
D03*
X348031D02*
D03*
X332835Y100472D02*
D03*
X325354D02*
D03*
X176181Y90905D02*
D03*
X183661D02*
D03*
X311221Y94508D02*
D03*
X303740D02*
D03*
X311299Y10394D02*
D03*
X303819D02*
D03*
X311221Y18976D02*
D03*
X303740D02*
D03*
X265650Y26280D02*
D03*
X273130D02*
D03*
X262067Y47776D02*
D03*
X269547D02*
D03*
X141811Y99173D02*
D03*
X134331D02*
D03*
X183150Y134609D02*
D03*
X175669D02*
D03*
X265632Y101953D02*
D03*
X273112D02*
D03*
X261496Y123779D02*
D03*
X268976D02*
D03*
X175945Y59409D02*
D03*
X183425D02*
D03*
X183819Y15709D02*
D03*
X176339D02*
D03*
X423701Y109685D02*
D03*
X416221D02*
D03*
X377008Y117638D02*
D03*
X369528D02*
D03*
X363110Y117677D02*
D03*
X355630D02*
D03*
X332520Y24409D02*
D03*
X325039D02*
D03*
X377126Y41575D02*
D03*
X369646D02*
D03*
X363189Y41496D02*
D03*
X355709D02*
D03*
X416181Y41339D02*
D03*
X423661D02*
D03*
X440512Y33110D02*
D03*
X433032D02*
D03*
D17*
X35787Y71634D02*
D03*
X42165D02*
D03*
X71024Y79213D02*
D03*
X64646D02*
D03*
X198217Y118954D02*
D03*
X191839D02*
D03*
X224134Y100000D02*
D03*
X217756D02*
D03*
X487913Y74705D02*
D03*
X494291D02*
D03*
X487913Y67382D02*
D03*
X494291D02*
D03*
X487874Y82028D02*
D03*
X494252D02*
D03*
X191772Y106614D02*
D03*
X198150D02*
D03*
X435945Y118032D02*
D03*
X429567D02*
D03*
X312756Y109173D02*
D03*
X319134D02*
D03*
X415591Y22835D02*
D03*
X409213D02*
D03*
X422480Y101929D02*
D03*
X416102D02*
D03*
X393701Y22638D02*
D03*
X387323D02*
D03*
X393150Y98583D02*
D03*
X386772D02*
D03*
X319055Y116575D02*
D03*
X312677D02*
D03*
X198110Y43307D02*
D03*
X191732D02*
D03*
X377677Y127087D02*
D03*
X384055D02*
D03*
X312677Y33228D02*
D03*
X319055D02*
D03*
X223858Y24724D02*
D03*
X217480D02*
D03*
X377874Y51339D02*
D03*
X384252D02*
D03*
X285453Y26555D02*
D03*
X279075D02*
D03*
X285512Y102284D02*
D03*
X279134D02*
D03*
X312717Y40709D02*
D03*
X319094D02*
D03*
X435906Y41260D02*
D03*
X429528D02*
D03*
X197975Y31343D02*
D03*
X191597D02*
D03*
D18*
X35906Y79311D02*
D03*
X42598D02*
D03*
D19*
X223917Y107283D02*
D03*
Y119095D02*
D03*
X205017D02*
D03*
Y113189D02*
D03*
Y107283D02*
D03*
X223781Y31614D02*
D03*
Y43425D02*
D03*
X204881D02*
D03*
Y37520D02*
D03*
Y31614D02*
D03*
X140663Y43622D02*
D03*
Y37716D02*
D03*
Y31811D02*
D03*
X121763D02*
D03*
Y43622D02*
D03*
X140941Y119173D02*
D03*
Y113268D02*
D03*
Y107362D02*
D03*
X122041D02*
D03*
Y119173D02*
D03*
D20*
X78858Y95354D02*
D03*
Y102835D02*
D03*
X87244Y95394D02*
D03*
Y102874D02*
D03*
X95669Y95276D02*
D03*
Y102756D02*
D03*
X84842Y71260D02*
D03*
Y63779D02*
D03*
X93819Y71142D02*
D03*
Y63661D02*
D03*
X104488Y71614D02*
D03*
Y79094D02*
D03*
X455590Y102087D02*
D03*
Y109567D02*
D03*
X442717Y48701D02*
D03*
Y41221D02*
D03*
X463307Y33228D02*
D03*
Y25748D02*
D03*
X455118Y25709D02*
D03*
Y33189D02*
D03*
X305906Y40079D02*
D03*
Y47559D02*
D03*
X305866Y33819D02*
D03*
Y26339D02*
D03*
X290866Y124724D02*
D03*
Y132205D02*
D03*
Y48858D02*
D03*
Y56339D02*
D03*
X305591Y109646D02*
D03*
Y102165D02*
D03*
Y116024D02*
D03*
Y123504D02*
D03*
X463701Y109646D02*
D03*
Y102165D02*
D03*
X287933Y40925D02*
D03*
Y33445D02*
D03*
X287087Y116634D02*
D03*
Y109153D02*
D03*
X442795Y125394D02*
D03*
Y117913D02*
D03*
D21*
X270472Y37224D02*
D03*
X278937Y39783D02*
D03*
Y34665D02*
D03*
X252677Y37224D02*
D03*
X261142Y39783D02*
D03*
Y34665D02*
D03*
X252106Y112795D02*
D03*
X260571Y115354D02*
D03*
Y110236D02*
D03*
X269902Y112854D02*
D03*
X278366Y115413D02*
D03*
Y110295D02*
D03*
D22*
X283602Y56122D02*
D03*
X276122D02*
D03*
X279862Y47854D02*
D03*
X283307Y131732D02*
D03*
X275827D02*
D03*
X279567Y123465D02*
D03*
D23*
X472835Y7013D02*
D03*
X481102D02*
D03*
X481024Y15674D02*
D03*
X472756D02*
D03*
D24*
X392165Y108228D02*
D03*
X388425D02*
D03*
X384685D02*
D03*
Y117482D02*
D03*
X388425D02*
D03*
X344409Y41359D02*
D03*
X340669D02*
D03*
Y32105D02*
D03*
X344409D02*
D03*
X348150D02*
D03*
X344291Y117541D02*
D03*
X340551D02*
D03*
Y108286D02*
D03*
X344291D02*
D03*
X348031D02*
D03*
X388622Y41596D02*
D03*
X384882D02*
D03*
Y32341D02*
D03*
X388622D02*
D03*
X392362D02*
D03*
X405000Y41674D02*
D03*
X401260D02*
D03*
Y32420D02*
D03*
X405000D02*
D03*
X408740D02*
D03*
X408504Y108305D02*
D03*
X404764D02*
D03*
X401024D02*
D03*
Y117559D02*
D03*
X404764D02*
D03*
D25*
X392165Y117482D02*
D03*
X348150Y41359D02*
D03*
X348031Y117541D02*
D03*
X392362Y41596D02*
D03*
X408740Y41674D02*
D03*
X408504Y117559D02*
D03*
D26*
X401142Y49882D02*
D03*
X400932Y126231D02*
D03*
X64764Y85551D02*
D03*
X117913Y78976D02*
D03*
X355787Y123898D02*
D03*
X355827Y47717D02*
D03*
D27*
X365000Y10000D02*
D03*
X375000D02*
D03*
X385000D02*
D03*
X495000Y110000D02*
D03*
Y120000D02*
D03*
Y130000D02*
D03*
X10000Y110000D02*
D03*
Y120000D02*
D03*
Y130000D02*
D03*
D28*
X395000Y10000D02*
D03*
D29*
X495000Y100000D02*
D03*
X10000D02*
D03*
D30*
X165984Y118228D02*
D03*
X183504Y48087D02*
D03*
X166417Y42750D02*
D03*
X187276Y45526D02*
D03*
X169213Y40512D02*
D03*
X163583Y40591D02*
D03*
X183307Y27283D02*
D03*
X447314Y23156D02*
D03*
X455056Y21831D02*
D03*
X298805Y105327D02*
D03*
X299488Y109685D02*
D03*
X294291Y104331D02*
D03*
X177362Y112909D02*
D03*
X199555Y113409D02*
D03*
X295276Y28504D02*
D03*
X199016Y37626D02*
D03*
X186514Y29224D02*
D03*
X299291Y30236D02*
D03*
X290480Y28457D02*
D03*
X294094Y39370D02*
D03*
X177638Y37598D02*
D03*
X180591Y39882D02*
D03*
X186768Y104530D02*
D03*
X180472Y115433D02*
D03*
X289843Y104095D02*
D03*
X183661Y102795D02*
D03*
X162936Y109748D02*
D03*
X169252Y109449D02*
D03*
X204370Y50787D02*
D03*
X145591Y113150D02*
D03*
X183583Y124173D02*
D03*
X151378Y112716D02*
D03*
X187205Y120984D02*
D03*
X155197Y112913D02*
D03*
X146197Y37781D02*
D03*
X151603Y37756D02*
D03*
X155157Y37717D02*
D03*
X127733Y66850D02*
D03*
X404764Y122984D02*
D03*
X405000Y47099D02*
D03*
X393976Y129646D02*
D03*
X401063Y101772D02*
D03*
X405039Y92716D02*
D03*
X398543Y96496D02*
D03*
X428661Y105866D02*
D03*
X436890Y125433D02*
D03*
X449449Y122323D02*
D03*
X449409Y117913D02*
D03*
X447559Y98740D02*
D03*
X470236Y102520D02*
D03*
X455236Y97126D02*
D03*
X428563Y109665D02*
D03*
X422402Y95906D02*
D03*
X416181Y96102D02*
D03*
X388543Y125354D02*
D03*
X344370Y100787D02*
D03*
X372992Y127008D02*
D03*
X361693Y107520D02*
D03*
X344331Y125157D02*
D03*
X393858Y125787D02*
D03*
X270394Y131693D02*
D03*
X318209Y90886D02*
D03*
X298346Y96299D02*
D03*
X311417Y102008D02*
D03*
X299606Y114842D02*
D03*
X296220Y117283D02*
D03*
X298425Y87717D02*
D03*
X293268Y113661D02*
D03*
X290394Y99843D02*
D03*
X397402Y104016D02*
D03*
X378031Y103937D02*
D03*
X361811Y100984D02*
D03*
X382323Y98543D02*
D03*
X377953Y108228D02*
D03*
X377559Y92598D02*
D03*
X311929Y123779D02*
D03*
X297677Y124843D02*
D03*
X260669Y102008D02*
D03*
X230028Y119151D02*
D03*
X217835Y94646D02*
D03*
X296850Y49055D02*
D03*
X398386Y20512D02*
D03*
X378310Y28195D02*
D03*
X397756Y28622D02*
D03*
X378071Y32362D02*
D03*
X382716Y22638D02*
D03*
X401575Y26024D02*
D03*
X344409Y24636D02*
D03*
X57874Y68347D02*
D03*
X49961Y67244D02*
D03*
X20472Y82933D02*
D03*
X469921Y25472D02*
D03*
X452992Y15871D02*
D03*
X485945Y11225D02*
D03*
X482992Y82028D02*
D03*
X28386Y84035D02*
D03*
X297244Y43071D02*
D03*
X109648Y93619D02*
D03*
X121890Y27402D02*
D03*
X121968Y102992D02*
D03*
X229173Y43740D02*
D03*
X453201Y41155D02*
D03*
X428398Y29344D02*
D03*
X394055Y53780D02*
D03*
X291260Y23779D02*
D03*
X166390Y31785D02*
D03*
X213330Y18652D02*
D03*
X213376Y94558D02*
D03*
X165984Y107244D02*
D03*
X169168Y34612D02*
D03*
X204961Y126339D02*
D03*
X129724Y99134D02*
D03*
X129842Y127520D02*
D03*
X129685Y51653D02*
D03*
Y23110D02*
D03*
X125709Y86654D02*
D03*
X145158Y83740D02*
D03*
X152992Y75118D02*
D03*
X152795Y68504D02*
D03*
X299897Y34306D02*
D03*
X300143Y40047D02*
D03*
X312008Y47362D02*
D03*
X311968Y26142D02*
D03*
X101732Y96929D02*
D03*
X217362Y18898D02*
D03*
X318071Y14724D02*
D03*
X298701Y11654D02*
D03*
X361929Y24252D02*
D03*
X344449Y49370D02*
D03*
X361850Y31063D02*
D03*
X415512Y17441D02*
D03*
X428366Y33327D02*
D03*
X409016Y17362D02*
D03*
X483189Y67185D02*
D03*
X483071Y74626D02*
D03*
X394055Y49764D02*
D03*
X449449Y41221D02*
D03*
X298780Y20276D02*
D03*
X260630Y26299D02*
D03*
X204618Y99038D02*
D03*
X204696Y23543D02*
D03*
X436929Y48661D02*
D03*
X373307Y51260D02*
D03*
X388740Y49685D02*
D03*
X163628Y34618D02*
D03*
X169173Y116538D02*
D03*
X162761Y116426D02*
D03*
X271083Y56043D02*
D03*
X84764Y58976D02*
D03*
X72874Y103032D02*
D03*
X104331Y66654D02*
D03*
M02*
