G04*
G04 #@! TF.GenerationSoftware,Altium Limited,Altium Designer,25.3.3 (18)*
G04*
G04 Layer_Color=128*
%FSLAX25Y25*%
%MOIN*%
G70*
G04*
G04 #@! TF.SameCoordinates,666F3FC4-157B-4D1F-873D-C3E9C75C07DF*
G04*
G04*
G04 #@! TF.FilePolarity,Positive*
G04*
G01*
G75*
%ADD48C,0.00200*%
D48*
X362835Y10000D02*
X367165D01*
X365000Y7835D02*
Y12165D01*
X372835Y10000D02*
X377165D01*
X375000Y7835D02*
Y12165D01*
X392835Y10000D02*
X397165D01*
X395000Y7835D02*
Y12165D01*
X382835Y10000D02*
X387165D01*
X385000Y7835D02*
Y12165D01*
X492835Y110000D02*
X497165D01*
X495000Y107835D02*
Y112165D01*
X492835Y100000D02*
X497165D01*
X495000Y97835D02*
Y102165D01*
X492835Y120000D02*
X497165D01*
X495000Y117835D02*
Y122165D01*
X492835Y130000D02*
X497165D01*
X495000Y127835D02*
Y132165D01*
X7835Y110000D02*
X12165D01*
X10000Y107835D02*
Y112165D01*
X7835Y100000D02*
X12165D01*
X10000Y97835D02*
Y102165D01*
X7835Y120000D02*
X12165D01*
X10000Y117835D02*
Y122165D01*
X7835Y130000D02*
X12165D01*
X10000Y127835D02*
Y132165D01*
X165384Y118228D02*
X166585D01*
X165984Y117628D02*
Y118829D01*
X182904Y48087D02*
X184104D01*
X183504Y47486D02*
Y48687D01*
X165817Y42750D02*
X167018D01*
X166417Y42150D02*
Y43350D01*
X186676Y45526D02*
X187876D01*
X187276Y44925D02*
Y46126D01*
X168612Y40512D02*
X169813D01*
X169213Y39911D02*
Y41112D01*
X162982Y40591D02*
X164183D01*
X163583Y39990D02*
Y41191D01*
X182707Y27283D02*
X183907D01*
X183307Y26683D02*
Y27884D01*
X446713Y23156D02*
X447914D01*
X447314Y22555D02*
Y23756D01*
X454456Y21831D02*
X455657D01*
X455056Y21230D02*
Y22431D01*
X298204Y105327D02*
X299405D01*
X298805Y104727D02*
Y105928D01*
X298888Y109685D02*
X300089D01*
X299488Y109085D02*
Y110285D01*
X293691Y104331D02*
X294892D01*
X294291Y103730D02*
Y104931D01*
X176762Y112909D02*
X177963D01*
X177362Y112309D02*
Y113510D01*
X198954Y113409D02*
X200155D01*
X199555Y112809D02*
Y114010D01*
X294675Y28504D02*
X295876D01*
X295276Y27904D02*
Y29104D01*
X198415Y37626D02*
X199616D01*
X199016Y37026D02*
Y38226D01*
X185914Y29224D02*
X187114D01*
X186514Y28624D02*
Y29825D01*
X298691Y30236D02*
X299892D01*
X299291Y29636D02*
Y30837D01*
X289880Y28457D02*
X291081D01*
X290480Y27856D02*
Y29057D01*
X293494Y39370D02*
X294695D01*
X294094Y38770D02*
Y39970D01*
X177037Y37598D02*
X178238D01*
X177638Y36998D02*
Y38199D01*
X179990Y39882D02*
X181191D01*
X180591Y39281D02*
Y40482D01*
X186168Y104530D02*
X187369D01*
X186768Y103929D02*
Y105130D01*
X179872Y115433D02*
X181073D01*
X180472Y114833D02*
Y116033D01*
X289242Y104095D02*
X290443D01*
X289843Y103494D02*
Y104695D01*
X183061Y102795D02*
X184262D01*
X183661Y102195D02*
Y103396D01*
X162336Y109748D02*
X163537D01*
X162936Y109147D02*
Y110348D01*
X168652Y109449D02*
X169852D01*
X169252Y108848D02*
Y110049D01*
X203770Y50787D02*
X204971D01*
X204370Y50187D02*
Y51388D01*
X144990Y113150D02*
X146191D01*
X145591Y112549D02*
Y113750D01*
X182982Y124173D02*
X184183D01*
X183583Y123573D02*
Y124774D01*
X150778Y112716D02*
X151978D01*
X151378Y112116D02*
Y113317D01*
X186604Y120984D02*
X187805D01*
X187205Y120384D02*
Y121585D01*
X154596Y112913D02*
X155797D01*
X155197Y112313D02*
Y113514D01*
X145597Y37781D02*
X146797D01*
X146197Y37180D02*
Y38381D01*
X151003Y37756D02*
X152204D01*
X151603Y37156D02*
Y38356D01*
X154557Y37717D02*
X155758D01*
X155157Y37116D02*
Y38317D01*
X127133Y66850D02*
X128334D01*
X127733Y66250D02*
Y67451D01*
X404163Y122984D02*
X405364D01*
X404764Y122383D02*
Y123584D01*
X404400Y47099D02*
X405600D01*
X405000Y46498D02*
Y47699D01*
X393376Y129646D02*
X394577D01*
X393976Y129045D02*
Y130246D01*
X400463Y101772D02*
X401663D01*
X401063Y101171D02*
Y102372D01*
X404439Y92716D02*
X405640D01*
X405039Y92116D02*
Y93317D01*
X397943Y96496D02*
X399144D01*
X398543Y95896D02*
Y97097D01*
X428061Y105866D02*
X429262D01*
X428661Y105266D02*
Y106466D01*
X436289Y125433D02*
X437490D01*
X436890Y124833D02*
Y126033D01*
X448848Y122323D02*
X450049D01*
X449449Y121722D02*
Y122923D01*
X448809Y117913D02*
X450010D01*
X449409Y117313D02*
Y118514D01*
X446959Y98740D02*
X448160D01*
X447559Y98140D02*
Y99341D01*
X469636Y102520D02*
X470837D01*
X470236Y101919D02*
Y103120D01*
X454636Y97126D02*
X455837D01*
X455236Y96526D02*
Y97726D01*
X427963Y109665D02*
X429163D01*
X428563Y109065D02*
Y110266D01*
X421801Y95906D02*
X423002D01*
X422402Y95305D02*
Y96506D01*
X415581Y96102D02*
X416782D01*
X416181Y95502D02*
Y96703D01*
X387943Y125354D02*
X389144D01*
X388543Y124754D02*
Y125955D01*
X343770Y100787D02*
X344970D01*
X344370Y100187D02*
Y101388D01*
X372392Y127008D02*
X373592D01*
X372992Y126408D02*
Y127608D01*
X361092Y107520D02*
X362293D01*
X361693Y106919D02*
Y108120D01*
X343730Y125157D02*
X344931D01*
X344331Y124557D02*
Y125758D01*
X393258Y125787D02*
X394459D01*
X393858Y125187D02*
Y126388D01*
X269793Y131693D02*
X270994D01*
X270394Y131093D02*
Y132293D01*
X317608Y90886D02*
X318809D01*
X318209Y90285D02*
Y91486D01*
X297746Y96299D02*
X298947D01*
X298346Y95699D02*
Y96900D01*
X310817Y102008D02*
X312018D01*
X311417Y101408D02*
Y102608D01*
X299006Y114842D02*
X300207D01*
X299606Y114242D02*
Y115443D01*
X295620Y117283D02*
X296821D01*
X296220Y116683D02*
Y117884D01*
X297825Y87717D02*
X299026D01*
X298425Y87116D02*
Y88317D01*
X292667Y113661D02*
X293868D01*
X293268Y113061D02*
Y114262D01*
X289793Y99843D02*
X290994D01*
X290394Y99242D02*
Y100443D01*
X396801Y104016D02*
X398002D01*
X397402Y103415D02*
Y104616D01*
X377431Y103937D02*
X378632D01*
X378031Y103337D02*
Y104537D01*
X361211Y100984D02*
X362411D01*
X361811Y100384D02*
Y101585D01*
X381722Y98543D02*
X382923D01*
X382323Y97943D02*
Y99144D01*
X377352Y108228D02*
X378553D01*
X377953Y107628D02*
Y108829D01*
X376959Y92598D02*
X378159D01*
X377559Y91998D02*
Y93199D01*
X311329Y123779D02*
X312529D01*
X311929Y123179D02*
Y124380D01*
X297077Y124843D02*
X298278D01*
X297677Y124242D02*
Y125443D01*
X260069Y102008D02*
X261270D01*
X260669Y101408D02*
Y102608D01*
X229428Y119151D02*
X230628D01*
X230028Y118551D02*
Y119751D01*
X217234Y94646D02*
X218435D01*
X217835Y94045D02*
Y95246D01*
X296250Y49055D02*
X297451D01*
X296850Y48455D02*
Y49656D01*
X397785Y20512D02*
X398986D01*
X398386Y19911D02*
Y21112D01*
X377710Y28195D02*
X378910D01*
X378310Y27594D02*
Y28795D01*
X397155Y28622D02*
X398356D01*
X397756Y28022D02*
Y29222D01*
X377470Y32362D02*
X378671D01*
X378071Y31762D02*
Y32963D01*
X382116Y22638D02*
X383317D01*
X382716Y22037D02*
Y23238D01*
X400974Y26024D02*
X402175D01*
X401575Y25423D02*
Y26624D01*
X343808Y24636D02*
X345009D01*
X344409Y24035D02*
Y25236D01*
X57274Y68347D02*
X58474D01*
X57874Y67746D02*
Y68947D01*
X49360Y67244D02*
X50561D01*
X49961Y66644D02*
Y67844D01*
X19872Y82933D02*
X21073D01*
X20472Y82333D02*
Y83534D01*
X469321Y25472D02*
X470522D01*
X469921Y24872D02*
Y26073D01*
X452392Y15871D02*
X453592D01*
X452992Y15271D02*
Y16472D01*
X485345Y11225D02*
X486545D01*
X485945Y10625D02*
Y11826D01*
X482392Y82028D02*
X483593D01*
X482992Y81427D02*
Y82628D01*
X27785Y84035D02*
X28986D01*
X28386Y83435D02*
Y84636D01*
X296644Y43071D02*
X297845D01*
X297244Y42470D02*
Y43671D01*
X109048Y93619D02*
X110249D01*
X109648Y93018D02*
Y94219D01*
X121289Y27402D02*
X122490D01*
X121890Y26801D02*
Y28002D01*
X121368Y102992D02*
X122569D01*
X121968Y102392D02*
Y103593D01*
X228573Y43740D02*
X229774D01*
X229173Y43140D02*
Y44341D01*
X452601Y41155D02*
X453802D01*
X453201Y40554D02*
Y41755D01*
X427798Y29344D02*
X428998D01*
X428398Y28743D02*
Y29944D01*
X393455Y53780D02*
X394655D01*
X394055Y53179D02*
Y54380D01*
X290659Y23779D02*
X291860D01*
X291260Y23179D02*
Y24380D01*
X165790Y31785D02*
X166990D01*
X166390Y31184D02*
Y32385D01*
X212730Y18652D02*
X213931D01*
X213330Y18052D02*
Y19253D01*
X212775Y94558D02*
X213976D01*
X213376Y93958D02*
Y95159D01*
X165384Y107244D02*
X166585D01*
X165984Y106644D02*
Y107844D01*
X168568Y34612D02*
X169768D01*
X169168Y34011D02*
Y35212D01*
X204360Y126339D02*
X205561D01*
X204961Y125738D02*
Y126939D01*
X129124Y99134D02*
X130325D01*
X129724Y98533D02*
Y99734D01*
X129242Y127520D02*
X130443D01*
X129842Y126919D02*
Y128120D01*
X129085Y51653D02*
X130285D01*
X129685Y51053D02*
Y52254D01*
X129085Y23110D02*
X130285D01*
X129685Y22510D02*
Y23711D01*
X125108Y86654D02*
X126309D01*
X125709Y86053D02*
Y87254D01*
X144557Y83740D02*
X145758D01*
X145158Y83140D02*
Y84341D01*
X152392Y75118D02*
X153593D01*
X152992Y74518D02*
Y75718D01*
X152195Y68504D02*
X153396D01*
X152795Y67904D02*
Y69104D01*
X299296Y34306D02*
X300497D01*
X299897Y33706D02*
Y34906D01*
X299543Y40047D02*
X300743D01*
X300143Y39446D02*
Y40647D01*
X311407Y47362D02*
X312608D01*
X312008Y46762D02*
Y47963D01*
X311368Y26142D02*
X312569D01*
X311968Y25541D02*
Y26742D01*
X101132Y96929D02*
X102333D01*
X101732Y96329D02*
Y97530D01*
X216762Y18898D02*
X217963D01*
X217362Y18297D02*
Y19498D01*
X317471Y14724D02*
X318671D01*
X318071Y14124D02*
Y15325D01*
X298100Y11654D02*
X299301D01*
X298701Y11053D02*
Y12254D01*
X361329Y24252D02*
X362529D01*
X361929Y23652D02*
Y24852D01*
X343848Y49370D02*
X345049D01*
X344449Y48770D02*
Y49970D01*
X361250Y31063D02*
X362451D01*
X361850Y30463D02*
Y31663D01*
X414911Y17441D02*
X416112D01*
X415512Y16841D02*
Y18041D01*
X427766Y33327D02*
X428967D01*
X428366Y32726D02*
Y33927D01*
X408415Y17362D02*
X409616D01*
X409016Y16762D02*
Y17963D01*
X482589Y67185D02*
X483789D01*
X483189Y66585D02*
Y67785D01*
X482471Y74626D02*
X483671D01*
X483071Y74026D02*
Y75226D01*
X393455Y49764D02*
X394655D01*
X394055Y49163D02*
Y50364D01*
X448848Y41221D02*
X450049D01*
X449449Y40620D02*
Y41821D01*
X298179Y20276D02*
X299380D01*
X298780Y19675D02*
Y20876D01*
X260030Y26299D02*
X261230D01*
X260630Y25699D02*
Y26900D01*
X204017Y99038D02*
X205218D01*
X204618Y98438D02*
Y99638D01*
X204096Y23543D02*
X205296D01*
X204696Y22942D02*
Y24143D01*
X436329Y48661D02*
X437530D01*
X436929Y48061D02*
Y49262D01*
X372707Y51260D02*
X373907D01*
X373307Y50660D02*
Y51860D01*
X388140Y49685D02*
X389341D01*
X388740Y49085D02*
Y50285D01*
X163028Y34618D02*
X164229D01*
X163628Y34018D02*
Y35219D01*
X168573Y116538D02*
X169774D01*
X169173Y115938D02*
Y117138D01*
X162161Y116426D02*
X163362D01*
X162761Y115826D02*
Y117026D01*
X270482Y56043D02*
X271683D01*
X271083Y55443D02*
Y56644D01*
X84163Y58976D02*
X85364D01*
X84764Y58376D02*
Y59577D01*
X72274Y103032D02*
X73474D01*
X72874Y102431D02*
Y103632D01*
X103730Y66654D02*
X104931D01*
X104331Y66053D02*
Y67254D01*
M02*
